<?xml version="1.0" encoding="UTF-8"?>
<!DOCTYPE svg PUBLIC "-//W3C//DTD SVG 1.1//EN" "http://www.w3.org/Graphics/SVG/1.1/DTD/svg11.dtd">
<!-- Creator: CorelDRAW 2019 (64-Bit) -->
<svg xmlns="http://www.w3.org/2000/svg" xml:space="preserve" width="12.5308mm" height="12.5307mm" version="1.1" style="shape-rendering:geometricPrecision; text-rendering:geometricPrecision; image-rendering:optimizeQuality; fill-rule:evenodd; clip-rule:evenodd"
viewBox="0 0 142.02 142.02"
 xmlns:xlink="http://www.w3.org/1999/xlink">
 <defs>
  <style type="text/css">
   <![CDATA[
    .str0 {stroke:#19ADE3;stroke-width:7.68;stroke-miterlimit:22.9256}
    .str1 {stroke:#BDBEC0;stroke-width:4.8;stroke-miterlimit:22.9256}
    .str2 {stroke:#747474;stroke-width:2.88;stroke-miterlimit:22.9256}
    .fil0 {fill:none}
   ]]>
  </style>
 </defs>
 <g id="Слой_x0020_1">
  <metadata id="CorelCorpID_0Corel-Layer"/>
  <path class="fil0 str0" d="M42.26 10.3c8.99,-4.26 18.8,-6.46 28.75,-6.46 37.1,0 67.17,30.07 67.17,67.17 0,37.1 -30.07,67.17 -67.17,67.17 -37.1,0 -67.17,-30.07 -67.17,-67.17 0,-3.18 0.23,-6.36 0.68,-9.51"/>
  <path class="fil0 str1" d="M23.23 43.42c15.24,-26.39 48.98,-35.43 75.37,-20.2 26.39,15.24 35.43,48.98 20.2,75.37 -15.24,26.39 -48.98,35.43 -75.37,20.2"/>
  <path class="fil0 str2" d="M29.91 94.74c-13.11,-22.7 -5.33,-51.73 17.37,-64.83 22.7,-13.11 51.72,-5.33 64.83,17.37 13.11,22.7 5.33,51.72 -17.37,64.83 -8.5,4.91 -18.31,7.06 -28.09,6.16"/>
 </g>
</svg>
