<?xml version="1.0" encoding="UTF-8"?>
<!DOCTYPE svg PUBLIC "-//W3C//DTD SVG 1.1//EN" "http://www.w3.org/Graphics/SVG/1.1/DTD/svg11.dtd">
<!-- Creator: CorelDRAW 2019 (64-Bit) -->
<svg xmlns="http://www.w3.org/2000/svg" xml:space="preserve" width="4.4861mm" height="4.4862mm" version="1.1" style="shape-rendering:geometricPrecision; text-rendering:geometricPrecision; image-rendering:optimizeQuality; fill-rule:evenodd; clip-rule:evenodd"
viewBox="0 0 43.18 43.18"
 xmlns:xlink="http://www.w3.org/1999/xlink">
 <defs>
  <style type="text/css">
   <![CDATA[
    .fil0 {fill:url(#id0);fill-rule:nonzero}
    .fil1 {fill:url(#id1);fill-rule:nonzero}
   ]]>
  </style>
  <linearGradient id="id0" gradientUnits="userSpaceOnUse" x1="21.59" y1="33.04" x2="21.59" y2="10.14">
   <stop offset="0" style="stop-opacity:1; stop-color:#90D6E5"/>
   <stop offset="0.0313725" style="stop-opacity:1; stop-color:#90D6E5"/>
   <stop offset="0.431373" style="stop-opacity:1; stop-color:#00B6D5"/>
   <stop offset="0.541176" style="stop-opacity:1; stop-color:#00B6D5"/>
   <stop offset="1" style="stop-opacity:1; stop-color:#396AAC"/>
  </linearGradient>
  <linearGradient id="id1" gradientUnits="userSpaceOnUse" x1="21.59" y1="43.18" x2="21.59" y2="0">
   <stop offset="0" style="stop-opacity:1; stop-color:#90D6E5"/>
   <stop offset="0.0313725" style="stop-opacity:1; stop-color:#90D6E5"/>
   <stop offset="0.431373" style="stop-opacity:1; stop-color:#00B6D5"/>
   <stop offset="0.541176" style="stop-opacity:1; stop-color:#00B6D5"/>
   <stop offset="1" style="stop-opacity:1; stop-color:#396AAB"/>
  </linearGradient>
 </defs>
 <g id="Слой_x0020_1">
  <metadata id="CorelCorpID_0Corel-Layer"/>
  <path class="fil0" d="M28.98 15.47c0,0.73 -0.6,1.33 -1.33,1.33 -0.73,0 -1.33,-0.59 -1.33,-1.33 0,-0.73 0.59,-1.33 1.33,-1.33 0.73,0 1.33,0.59 1.33,1.33zm-1.66 5.96l0 0c0,3.08 -2.5,5.58 -5.58,5.58 -3.08,0 -5.58,-2.5 -5.58,-5.58 0,-3.08 2.5,-5.58 5.58,-5.58 3.08,0 5.58,2.5 5.58,5.58zm-2.01 0l0 0c0,-1.97 -1.6,-3.57 -3.57,-3.57 -1.97,0 -3.58,1.6 -3.58,3.57 0,1.97 1.6,3.58 3.58,3.58 1.97,0 3.57,-1.6 3.57,-3.58zm7.72 -4.48l0 0c0,-3.76 -3.05,-6.81 -6.81,-6.81l-9.29 0c-3.76,0 -6.81,3.05 -6.81,6.81l0 9.29c0,3.76 3.05,6.81 6.81,6.81l9.29 0c3.76,0 6.81,-3.05 6.81,-6.81l0 -9.29zm-2.23 9.19l0 0c0,2.58 -2.09,4.68 -4.68,4.68l-9.09 0c-2.58,0 -4.68,-2.09 -4.68,-4.68l0 -9.09c0,-2.58 2.09,-4.68 4.68,-4.68l9.09 0c2.58,0 4.68,2.09 4.68,4.68l0 9.09z"/>
  <path class="fil1" d="M21.59 43.18c-11.9,0 -21.59,-9.69 -21.59,-21.59 0,-11.91 9.68,-21.59 21.59,-21.59 11.91,0 21.59,9.68 21.59,21.59 0,11.9 -9.68,21.59 -21.59,21.59zm0 -41.52l0 0c-10.99,0 -19.93,8.94 -19.93,19.93 0,10.99 8.94,19.93 19.93,19.93 10.99,0 19.93,-8.94 19.93,-19.93 0,-10.99 -8.94,-19.93 -19.93,-19.93z"/>
 </g>
</svg>
