<?xml version="1.0" encoding="UTF-8"?>
<!DOCTYPE svg PUBLIC "-//W3C//DTD SVG 1.1//EN" "http://www.w3.org/Graphics/SVG/1.1/DTD/svg11.dtd">
<!-- Creator: CorelDRAW 2019 (64-Bit) -->
<svg xmlns="http://www.w3.org/2000/svg" xml:space="preserve" width="4.4862mm" height="4.4862mm" version="1.1" style="shape-rendering:geometricPrecision; text-rendering:geometricPrecision; image-rendering:optimizeQuality; fill-rule:evenodd; clip-rule:evenodd"
viewBox="0 0 57.68 57.68"
 xmlns:xlink="http://www.w3.org/1999/xlink">
 <defs>
  <style type="text/css">
   <![CDATA[
    .fil0 {fill:url(#id0)}
    .fil1 {fill:url(#id1);fill-rule:nonzero}
   ]]>
  </style>
  <linearGradient id="id0" gradientUnits="userSpaceOnUse" x1="28.84" y1="54.03" x2="28.84" y2="-5.52">
   <stop offset="0" style="stop-opacity:1; stop-color:#90D6E5"/>
   <stop offset="0.0313725" style="stop-opacity:1; stop-color:#90D6E5"/>
   <stop offset="0.431373" style="stop-opacity:1; stop-color:#00B6D5"/>
   <stop offset="0.541176" style="stop-opacity:1; stop-color:#00B6D5"/>
   <stop offset="1" style="stop-opacity:1; stop-color:#3A09DB"/>
  </linearGradient>
  <linearGradient id="id1" gradientUnits="userSpaceOnUse" xlink:href="#id0" x1="28.84" y1="54.03" x2="28.84" y2="-5.52">
  </linearGradient>
 </defs>
 <g id="Слой_x0020_1">
  <metadata id="CorelCorpID_0Corel-Layer"/>
  <path class="fil0" d="M24.94 28.96l0 14.49c0,0.21 0.17,0.38 0.38,0.38l5.38 0c0.21,0 0.38,-0.17 0.38,-0.38l0 -14.73 3.9 0c0.2,0 0.36,-0.15 0.38,-0.35l0.37 -4.44c0.02,-0.22 -0.15,-0.41 -0.38,-0.41l-4.28 0 0 -3.15c0,-0.74 0.6,-1.34 1.34,-1.34l3.01 0c0.21,0 0.38,-0.17 0.38,-0.38l0 -4.44c0,-0.21 -0.17,-0.38 -0.38,-0.38l-5.08 0c-2.98,0 -5.4,2.42 -5.4,5.4l0 4.28 -2.69 0c-0.21,0 -0.38,0.17 -0.38,0.38l0 4.44c0,0.21 0.17,0.38 0.38,0.38l2.69 0 0 0.24z"/>
  <path class="fil1" d="M28.84 57.68c-15.9,0 -28.84,-12.94 -28.84,-28.84 0,-15.9 12.94,-28.84 28.84,-28.84 15.9,0 28.84,12.94 28.84,28.84 0,15.9 -12.94,28.84 -28.84,28.84zm0 -55.46l0 0c-14.68,0 -26.62,11.94 -26.62,26.62 0,14.68 11.94,26.62 26.62,26.62 14.68,0 26.62,-11.94 26.62,-26.62 0,-14.68 -11.94,-26.62 -26.62,-26.62z"/>
 </g>
</svg>
