<?xml version="1.0" encoding="UTF-8"?>
<!DOCTYPE svg PUBLIC "-//W3C//DTD SVG 1.1//EN" "http://www.w3.org/Graphics/SVG/1.1/DTD/svg11.dtd">
<!-- Creator: CorelDRAW 2019 (64-Bit) -->
<svg xmlns="http://www.w3.org/2000/svg" xml:space="preserve" width="4.4861mm" height="4.4862mm" version="1.1" style="shape-rendering:geometricPrecision; text-rendering:geometricPrecision; image-rendering:optimizeQuality; fill-rule:evenodd; clip-rule:evenodd"
viewBox="0 0 28.73 28.74"
 xmlns:xlink="http://www.w3.org/1999/xlink">
 <defs>
  <style type="text/css">
   <![CDATA[
    .fil1 {fill:url(#id0);fill-rule:nonzero}
    .fil0 {fill:url(#id1);fill-rule:nonzero}
   ]]>
  </style>
  <linearGradient id="id0" gradientUnits="userSpaceOnUse" x1="14.37" y1="28.74" x2="14.37" y2="0">
   <stop offset="0" style="stop-opacity:1; stop-color:#90D6E5"/>
   <stop offset="0.0313725" style="stop-opacity:1; stop-color:#90D6E5"/>
   <stop offset="0.431373" style="stop-opacity:1; stop-color:#00B6D5"/>
   <stop offset="0.541176" style="stop-opacity:1; stop-color:#00B6D5"/>
   <stop offset="1" style="stop-opacity:1; stop-color:#3B67AA"/>
  </linearGradient>
  <linearGradient id="id1" gradientUnits="userSpaceOnUse" x1="14.37" y1="19.76" x2="14.37" y2="8.97">
   <stop offset="0" style="stop-opacity:1; stop-color:#90D6E5"/>
   <stop offset="0.0313725" style="stop-opacity:1; stop-color:#90D6E5"/>
   <stop offset="0.431373" style="stop-opacity:1; stop-color:#00B6D5"/>
   <stop offset="0.541176" style="stop-opacity:1; stop-color:#00B6D5"/>
   <stop offset="1" style="stop-opacity:1; stop-color:#3D65A9"/>
  </linearGradient>
 </defs>
 <g id="Слой_x0020_1">
  <metadata id="CorelCorpID_0Corel-Layer"/>
  <path class="fil0" d="M22.25 12.42c0,-1.9 -1.54,-3.45 -3.45,-3.45l-8.87 0c-1.9,0 -3.45,1.54 -3.45,3.45l0 3.89c0,1.9 1.54,3.45 3.45,3.45l8.87 0c1.9,0 3.45,-1.54 3.45,-3.45l0 -3.89zm-4.88 2.05l0 0 -3.97 1.96c-0.16,0.08 -0.7,-0.03 -0.7,-0.2l0 -4.01c0,-0.18 0.55,-0.29 0.7,-0.2l3.79 2.06c0.16,0.09 0.33,0.32 0.17,0.41z"/>
  <path class="fil1" d="M14.37 28.74c-7.92,0 -14.37,-6.45 -14.37,-14.37 0,-7.92 6.45,-14.37 14.37,-14.37 7.92,0 14.37,6.45 14.37,14.37 0,7.92 -6.45,14.37 -14.37,14.37zm0 -27.63l0 0c-7.31,0 -13.26,5.95 -13.26,13.26 0,7.31 5.95,13.26 13.26,13.26 7.31,0 13.26,-5.95 13.26,-13.26 0,-7.31 -5.95,-13.26 -13.26,-13.26z"/>
 </g>
</svg>
