<?xml version="1.0" encoding="UTF-8"?>
<!DOCTYPE svg PUBLIC "-//W3C//DTD SVG 1.1//EN" "http://www.w3.org/Graphics/SVG/1.1/DTD/svg11.dtd">
<!-- Creator: CorelDRAW 2019 (64-Bit) -->
<svg xmlns="http://www.w3.org/2000/svg" xml:space="preserve" width="109.519mm" height="36.0535mm" version="1.1" style="shape-rendering:geometricPrecision; text-rendering:geometricPrecision; image-rendering:optimizeQuality; fill-rule:evenodd; clip-rule:evenodd"
viewBox="0 0 11601.88 3819.34"
 xmlns:xlink="http://www.w3.org/1999/xlink">
 <defs>
  <style type="text/css">
   <![CDATA[
    .fil2 {fill:#19ADE3}
    .fil3 {fill:#747474}
    .fil35 {fill:black;fill-rule:nonzero}
    .fil11 {fill:#0A4982;fill-rule:nonzero}
    .fil6 {fill:#0C50B3;fill-rule:nonzero}
    .fil40 {fill:#0E431B;fill-rule:nonzero}
    .fil48 {fill:#0F52B3;fill-rule:nonzero}
    .fil58 {fill:#1154B4;fill-rule:nonzero}
    .fil44 {fill:#13315C;fill-rule:nonzero}
    .fil64 {fill:#1445A2;fill-rule:nonzero}
    .fil1 {fill:#19ADE3;fill-rule:nonzero}
    .fil46 {fill:#1B1B1B;fill-rule:nonzero}
    .fil59 {fill:#1B5BB7;fill-rule:nonzero}
    .fil24 {fill:#1C1C1C;fill-rule:nonzero}
    .fil39 {fill:#1D5CB8;fill-rule:nonzero}
    .fil47 {fill:#1F5DB8;fill-rule:nonzero}
    .fil61 {fill:#212121;fill-rule:nonzero}
    .fil57 {fill:#2260B9;fill-rule:nonzero}
    .fil23 {fill:#243E63;fill-rule:nonzero}
    .fil34 {fill:#2763BB;fill-rule:nonzero}
    .fil43 {fill:#2A4163;fill-rule:nonzero}
    .fil16 {fill:#2A65BC;fill-rule:nonzero}
    .fil60 {fill:#2B2B2B;fill-rule:nonzero}
    .fil63 {fill:#2C59AD;fill-rule:nonzero}
    .fil36 {fill:#2D4465;fill-rule:nonzero}
    .fil30 {fill:#2E69BD;fill-rule:nonzero}
    .fil21 {fill:#316ABE;fill-rule:nonzero}
    .fil20 {fill:#356EBF;fill-rule:nonzero}
    .fil52 {fill:#3677BA;fill-rule:nonzero}
    .fil22 {fill:#383838;fill-rule:nonzero}
    .fil41 {fill:#388805;fill-rule:nonzero}
    .fil51 {fill:#3D7CBD;fill-rule:nonzero}
    .fil55 {fill:#406068;fill-rule:nonzero}
    .fil38 {fill:#467ECF;fill-rule:nonzero}
    .fil27 {fill:#477AC5;fill-rule:nonzero}
    .fil62 {fill:#478520;fill-rule:nonzero}
    .fil18 {fill:#497CC6;fill-rule:nonzero}
    .fil12 {fill:#4B7C93;fill-rule:nonzero}
    .fil54 {fill:#4C583E;fill-rule:nonzero}
    .fil45 {fill:#4D757D;fill-rule:nonzero}
    .fil49 {fill:#595959;fill-rule:nonzero}
    .fil9 {fill:#5A88CB;fill-rule:nonzero}
    .fil19 {fill:#5FA7DC;fill-rule:nonzero}
    .fil10 {fill:#67939B;fill-rule:nonzero}
    .fil42 {fill:#6BB8E4;fill-rule:nonzero}
    .fil8 {fill:#729AD3;fill-rule:nonzero}
    .fil0 {fill:#747474;fill-rule:nonzero}
    .fil15 {fill:#7772D6;fill-rule:nonzero}
    .fil13 {fill:#77BA25;fill-rule:nonzero}
    .fil4 {fill:#7CA1D6;fill-rule:nonzero}
    .fil37 {fill:#7F7F7F;fill-rule:nonzero}
    .fil53 {fill:#85C52C;fill-rule:nonzero}
    .fil50 {fill:#A7F1FF;fill-rule:nonzero}
    .fil33 {fill:#ADCFFF;fill-rule:nonzero}
    .fil32 {fill:#C5A3E9;fill-rule:nonzero}
    .fil7 {fill:#D8C9E8;fill-rule:nonzero}
    .fil5 {fill:#DEECFF;fill-rule:nonzero}
    .fil25 {fill:#E0F2C9;fill-rule:nonzero}
    .fil28 {fill:#E39059;fill-rule:nonzero}
    .fil29 {fill:#E3D2FA;fill-rule:nonzero}
    .fil14 {fill:#E6F2FF;fill-rule:nonzero}
    .fil31 {fill:#ECD9FF;fill-rule:nonzero}
    .fil17 {fill:#F6AA76;fill-rule:nonzero}
    .fil26 {fill:#F6BC95;fill-rule:nonzero}
    .fil56 {fill:#F7C798;fill-rule:nonzero}
   ]]>
  </style>
 </defs>
 <g id="Слой_x0020_1">
  <metadata id="CorelCorpID_0Corel-Layer"/>
  <g id="_2597537752752">
   <g>
    <path class="fil0" d="M5856.75 2947.73l-644.35 -534.39c-40.94,-33.98 -46.6,-94.7 -12.65,-135.64l282.54 -340.68c33.94,-40.94 94.7,-46.63 135.63,-12.66l644.38 534.4c40.94,33.97 46.6,94.7 12.66,135.64l-282.57 340.68c-33.95,40.98 -94.66,46.63 -135.64,12.65z"/>
    <path class="fil1" d="M6262.3 2458.77l-644.38 -534.4c-28.67,-23.77 -67.04,-28.13 -99.11,-14.56 17.55,2.22 34.68,9.29 49.3,21.43l644.39 534.42c40.93,33.94 46.59,94.66 12.64,135.61l-282.53 340.71c-10.21,12.27 -22.8,21.37 -36.53,27.17 31.6,4.01 64.5,-7.75 86.31,-34.07l282.57 -340.68c33.94,-40.94 28.28,-101.67 -12.66,-135.64z"/>
    <path class="fil2" d="M5732.83 2196.99l8.2 -55.28c2.39,-16.03 -4.88,-31.92 -18.53,-40.59l-323.63 -205.2c-19.11,-12.08 -44.39,-6.42 -56.46,12.65l-139.33 219.76 0.57 0.34 -262.63 414.21c-12.08,19.07 -6.42,44.34 12.65,56.45l954.7 605.31c19.08,12.09 44.34,6.42 56.45,-12.65l348.54 -549.72c12.11,-19.07 6.45,-44.34 -12.66,-56.42l-549.34 -348.3c-13.63,-8.68 -20.91,-24.58 -18.53,-40.56z"/>
    <path class="fil3" d="M5649.58 2120.61l-226.08 -143.34c-23.18,-14.69 -53.97,-7.79 -68.69,15.39l-144.07 227.22 0.57 0.38 -221.5 349.32c-6.26,9.88 8.68,19.39 14.98,9.5l230.97 -364.29 -0.57 -0.38 134.59 -212.28c9.47,-14.92 29.3,-19.36 44.22,-9.89l226.08 143.34c4.13,2.64 9.61,1.4 12.25,-2.74 2.6,-4.12 1.39,-9.6 -2.74,-12.22z"/>
    <path class="fil4" d="M2034.38 2345.02c-477.24,182.37 -1013.87,-57.5 -1196.26,-534.74 -182.39,-477.23 57.5,-1013.87 534.74,-1196.26 477.23,-182.37 1013.87,57.5 1196.25,534.74 182.4,477.25 -57.49,1013.87 -534.73,1196.26z"/>
    <path class="fil1" d="M2025.77 2322.49c-464.81,177.63 -987.48,-55.98 -1165.12,-520.82 -177.63,-464.8 56.01,-987.48 520.81,-1165.11 464.81,-177.64 987.49,55.99 1165.12,520.81 177.66,464.82 -56,987.49 -520.81,1165.12z"/>
    <path class="fil4" d="M2468.58 1191.74c161.15,421.65 -50.04,894.05 -471.69,1055.22 -421.63,161.14 -894.05,-50.06 -1055.2,-471.71 -161.13,-421.62 50.04,-894.05 471.68,-1055.19 421.64,-161.14 894.07,50.04 1055.21,471.68z"/>
    <path class="fil5" d="M1980.18 2203.22c-399.05,152.49 -847.76,-48.09 -1000.25,-447.13 -152.49,-399.03 48.07,-847.74 447.12,-1000.24 399.04,-152.49 847.75,48.08 1000.24,447.11 152.49,399.06 -48.06,847.75 -447.11,1000.26z"/>
    <path class="fil4" d="M1091.23 1671.31l-123.79 47.3c-20.34,7.75 -30.56,30.65 -22.8,50.99 7.79,20.32 30.66,30.55 50.99,22.77l123.79 -47.31c20.34,-7.75 30.56,-30.64 22.79,-50.99 -7.77,-20.31 -30.64,-30.54 -50.98,-22.75z"/>
    <path class="fil4" d="M1918.18 2040.94c-20.35,7.8 -30.57,30.65 -22.8,51l47.3 123.79c7.78,20.34 30.65,30.54 50.99,22.75 20.34,-7.75 30.56,-30.62 22.79,-50.95l-47.3 -123.79c-7.78,-20.35 -30.65,-30.58 -50.98,-22.8z"/>
    <path class="fil4" d="M2411.59 1166.7l-123.77 47.3c-20.34,7.78 -30.57,30.65 -22.8,50.99 7.78,20.33 30.64,30.55 50.99,22.78l123.79 -47.31c20.33,-7.77 30.56,-30.63 22.79,-50.97 -7.78,-20.35 -30.64,-30.56 -50.99,-22.79z"/>
    <path class="fil4" d="M1413.57 720.57c-20.34,7.78 -30.56,30.64 -22.79,50.98l47.3 123.79c7.78,20.34 30.65,30.56 50.98,22.79 20.35,-7.79 30.56,-30.64 22.8,-50.99l-47.3 -123.77c-7.79,-20.34 -30.65,-30.56 -50.99,-22.79z"/>
    <path class="fil1" d="M1708.58 436.45l14.93 -145.88c1.23,-11.97 11.93,-20.69 23.89,-19.46l167.36 17.13c11.97,1.23 20.68,11.93 19.46,23.9l-14.94 145.87c-1.22,11.99 -11.93,20.71 -23.91,19.48l-167.31 -17.13c-11.98,-1.22 -20.7,-11.93 -19.47,-23.91z"/>
    <path class="fil6" d="M1920.16 276.98l0.6 -5.86c1.15,-11.31 -3.77,-21.08 -11,-21.82l-149.61 -15.31c-7.22,-0.74 -14.03,7.83 -15.19,19.14l-0.59 5.85 175.79 18z"/>
    <path class="fil6" d="M1880.14 551.4l6.45 -62.99 -152.18 -15.57 -6.35 61.99c51.32,1.4 102.16,7 152.07,16.57z"/>
    <path class="fil1" d="M1012.87 702.33l-108.42 -98.74c-8.89,-8.1 -22.67,-7.46 -30.78,1.43l-113.27 124.38c-8.1,8.9 -7.46,22.68 1.44,30.78l108.42 98.74c8.9,8.1 22.69,7.47 30.81,-1.44l113.24 -124.35c8.1,-8.9 7.46,-22.69 -1.44,-30.81z"/>
    <path class="fil6" d="M748.83 724.62l-4.34 -3.96c-8.41,-7.66 -11.26,-18.22 -6.37,-23.59l101.27 -111.19c4.88,-5.38 15.67,-3.52 24.08,4.13l4.35 3.96 -119 130.65z"/>
    <path class="fil6" d="M1061.38 786.29l-43.5 -39.62 -103.01 113.1 43.24 39.38c31.16,-40.13 65.64,-77.9 103.27,-112.85z"/>
    <path class="fil1" d="M1223.23 481.74c-10.92,4.16 -23.2,-1.32 -27.38,-12.27l-37.68 -98.6c-4.18,-10.94 1.3,-23.22 12.22,-27.39l201.25 -76.91c10.92,-4.17 23.2,1.32 27.38,12.26l37.68 98.62c4.17,10.93 -1.31,23.22 -12.24,27.38l-201.23 76.92z"/>
    <path class="fil6" d="M1368.23 258.08l-1.64 -4.27c-3.16,-8.27 -12.41,-12.42 -20.68,-9.26l-171.02 65.36c-8.26,3.17 -12.41,12.43 -9.25,20.68l1.63 4.29 200.96 -76.8z"/>
    <path class="fil1" d="M1532.01 184.45c-56.46,-147.74 -222.6,-222 -370.34,-165.53 -147.74,56.46 -222,222.59 -165.53,370.34 48.01,125.64 175.34,198.14 303.23,182.29l-20.33 -53.2c-98.78,6.41 -194.4,-51.39 -231.6,-148.7 -45.72,-119.65 14.2,-253.7 133.84,-299.43 119.64,-45.72 253.7,14.21 299.43,133.84 37.18,97.32 4.48,204.17 -73.4,265.26l20.33 53.2c105.86,-73.48 152.39,-212.42 104.38,-338.07z"/>
    <path class="fil6" d="M1366.27 596.8c23.48,-8.97 47.1,-16.93 70.81,-23.93l-54.38 -142.28 -111.17 42.48 53.71 140.51c13.47,-5.88 27.15,-11.47 41.03,-16.78z"/>
    <path class="fil7" d="M1767.2 1454.27c13.41,35.05 -4.15,74.33 -39.22,87.76 -35.05,13.38 -74.35,-4.16 -87.75,-39.23 -13.39,-35.06 4.16,-74.35 39.23,-87.75 35.05,-13.4 74.33,4.16 87.74,39.22z"/>
    <path class="fil7" d="M1793.68 925.53l-66.28 556.6c-1.66,14.02 -14.38,24.03 -28.4,22.37 -14.03,-1.68 -24.04,-14.4 -22.37,-28.41 0.26,-2.21 -4.8,22.25 117.06,-550.57z"/>
    <path class="fil8" d="M1729.66 1468.62c5.48,14.32 -1.69,30.36 -16.02,35.86 -14.33,5.48 -30.38,-1.72 -35.86,-16.02 -5.48,-14.34 1.71,-30.39 16.03,-35.87 14.33,-5.48 30.38,1.71 35.85,16.03z"/>
    <path class="fil8" d="M2205.67 1682.08c-1.01,0.38 -2.15,0.38 -3.22,-0.03l-494.92 -201.54c-2.24,-0.91 -3.32,-3.46 -2.4,-5.71 0.92,-2.25 3.46,-3.34 5.72,-2.42l494.91 201.53c2.24,0.92 3.33,3.46 2.4,5.72 -0.48,1.18 -1.4,2.03 -2.49,2.45z"/>
    <path class="fil9" d="M1993.67 1023.4l0 1174.48c390.05,-157.36 584.4,-600.42 433.62,-994.92 -47.48,-124.25 -123.7,-229.25 -218.17,-310.35l-84.66 0c-72.24,0 -130.79,58.55 -130.79,130.79z"/>
    <path class="fil9" d="M1993.67 1023.4l0 1224.74c1.07,-0.37 2.15,-0.79 3.22,-1.18 421.64,-161.17 632.84,-633.57 471.69,-1055.22 -44.76,-117.1 -113.53,-217.96 -198.55,-299.13l-145.57 0c-72.24,0 -130.79,58.55 -130.79,130.79z"/>
    <path class="fil9" d="M1993.67 1023.4l0 1310.66c10.73,-3.62 21.43,-7.5 32.1,-11.57 464.81,-177.63 698.47,-700.3 520.81,-1165.12 -37.99,-99.43 -91.78,-188.27 -157.41,-264.76l-264.71 0c-72.24,0 -130.79,58.55 -130.79,130.79z"/>
    <path class="fil10" d="M2448.46 928.29l-30.22 0c-9.39,-12.15 -19.1,-24.09 -29.05,-35.68l31.46 0c9.52,11.63 18.8,23.53 27.81,35.68z"/>
    <path class="fil11" d="M2418.24 928.29l-0.02 0c-9.4,-12.18 -19.09,-24.08 -29.05,-35.68l0.02 0c9.95,11.59 19.66,23.53 29.05,35.68z"/>
    <path class="fil12" d="M2081.78 1414.95l-88.11 0 0 -391.55c0,-72.24 58.55,-130.79 130.79,-130.79l264.71 0c9.96,11.6 19.65,23.5 29.05,35.68l-209.08 0c-70.33,0 -127.36,57.01 -127.36,127.34l0 359.31z"/>
    <path class="fil13" d="M1734 3561.21l479.52 0c16.3,0 29.52,-13.19 29.52,-29.49l0 -2087.25c0,-16.31 -13.22,-29.52 -29.52,-29.52l-479.52 0c-16.3,0 -29.52,13.21 -29.52,29.52l0 2087.25c0,16.3 13.22,29.49 29.52,29.49z"/>
    <polygon class="fil14" points="2286.59,3561.21 2825.13,3561.21 2825.13,1414.95 2286.59,1414.95 "/>
    <polygon class="fil14" points="2886.51,3561.21 3425.07,3561.21 3425.07,1414.95 2886.51,1414.95 "/>
    <path class="fil15" d="M1235.06 3561.21l400.3 0c16.31,0 29.52,-13.19 29.52,-29.49l0 -1772.61c0,-16.3 -13.21,-29.53 -29.52,-29.53l-400.3 0c-16.31,0 -29.53,13.23 -29.53,29.53l0 1772.61c0,16.3 13.22,29.49 29.53,29.49z"/>
    <path class="fil16" d="M720.26 3561.21l400.3 0c16.3,0 29.53,-13.19 29.53,-29.49l0 -991.64c0,-16.3 -13.23,-29.53 -29.53,-29.53l-400.3 0c-16.3,0 -29.53,13.23 -29.53,29.53l0 991.64c0,16.3 13.23,29.49 29.53,29.49z"/>
    <path class="fil13" d="M207.61 3561.21l400.3 0c16.3,0 29.53,-13.19 29.53,-29.49l0 -610.21c0,-16.28 -13.23,-29.5 -29.53,-29.5l-400.3 0c-16.31,0 -29.53,13.22 -29.53,29.5l0 610.21c0,16.3 13.22,29.49 29.53,29.49z"/>
    <path class="fil17" d="M478.89 3439.31l-9.31 83.31 27.39 26.96 36.04 -21.43c0,0 -5.06,-15.57 -6.99,-28.89 -1.92,-13.35 23.62,-76.36 23.62,-76.36l-70.75 16.41z"/>
    <path class="fil1" d="M466.69 3506.35c0,0 -9.85,13.76 -12.41,37.03 -2.55,23.3 3.98,45.14 3.98,45.14 0,0 112.75,6.36 156.89,-1.85 44.14,-8.19 48.07,-15.92 46.97,-28.41 -1.1,-12.52 -61.01,-8.77 -78.93,-23.78 -17.92,-15 -42.9,-47.23 -53.5,-41.99 -10.6,5.25 -8.52,25.34 -22.85,26.61 -14.34,1.27 -33.76,-20.37 -40.16,-12.74z"/>
    <path class="fil17" d="M123.93 3441.09l-67.7 49.43 -1.37 38.42 40.16 12.06c0,0 8.04,-14.25 16.57,-24.67 8.53,-10.42 72.23,-34.17 72.23,-34.17l-59.89 -41.06z"/>
    <path class="fil1" d="M66.27 3477.39c0,0 -16.81,2.03 -35.7,15.9 -18.88,13.86 -30.57,33.43 -30.57,33.43 0,0 71.52,87.39 107.41,114.38 35.88,27.01 44.22,24.67 52.69,15.41 8.47,-9.25 -34.78,-50.89 -35.83,-74.25 -1.05,-23.34 5.83,-63.52 -5.2,-67.81 -11.03,-4.26 -24.43,10.84 -35.05,1.14 -10.61,-9.69 -7.8,-38.66 -17.74,-38.21z"/>
    <path class="fil18" d="M280.47 2784.21c0,0 50.02,341.22 50.02,383.53 0,42.31 -238.5,266.48 -238.5,266.48 0,0 8.05,76.29 65.29,84.02 13.97,1.91 280.62,-236.53 295.96,-272.14 17.57,-40.88 65.8,-330.21 65.8,-330.21 0,0 108.19,162.68 103.44,196.22 -7.46,52.64 -169.23,334.96 -169.23,334.96 0,0 22.07,48.86 100.57,15.09 0,0 216,-275.37 248.07,-307.45 32.08,-32.08 -232.29,-465.7 -232.29,-465.7l-289.12 95.2z"/>
    <path class="fil19" d="M295.62 2889.6c0,-0.03 0,-0.03 -0.01,-0.03 -2.79,-19.71 -5.38,-37.86 -7.61,-53.34l0 0c2.22,15.48 4.82,33.62 7.62,53.37z"/>
    <path class="fil20" d="M355.66 2910.33c-14.83,0 -37.11,-8.56 -60.03,-20.73 -2.8,-19.75 -5.39,-37.89 -7.62,-53.37 21.76,11.06 42.82,18.75 56.91,18.75 2,0 3.86,-0.16 5.56,-0.48 23.96,-4.58 55.54,-39.61 55.54,-99.84l0 0c1.62,-0.84 3.25,-1.63 4.88,-2.43 3.85,17.84 6.6,34.56 8.1,49.92l0.08 -0.03c0,64.97 -32.79,102.74 -57.66,107.69 -1.77,0.35 -3.71,0.52 -5.77,0.52z"/>
    <path class="fil21" d="M280.47 2784.21c26.49,116.76 58.04,312.45 61.68,381.49 8.19,46.51 -206.07,232.88 -250.16,268.51 80.04,-88.88 220.19,-234.05 226.5,-265.24 -1.84,-14.02 5.82,37.07 -10.48,-106.04 -3.36,-30.9 -7.24,-61.74 -10.4,-92.66 -6.76,-61.87 -13.01,-123.79 -17.14,-186.06z"/>
    <path class="fil18" d="M569.19 2710.95c-0.64,-0.03 -1.27,-0.03 -1.91,-0.03 0.64,0 1.27,0 1.91,0.03z"/>
    <path class="fil18" d="M564.38 2710.88c-0.58,0 -1.18,0.03 -1.76,0.03 0.58,0 1.18,-0.03 1.76,-0.03z"/>
    <path class="fil18" d="M590.57 2712.47c-0.61,-0.06 -1.24,-0.14 -1.86,-0.22 0.63,0.08 1.25,0.16 1.86,0.22z"/>
    <path class="fil18" d="M234.02 2159.16c0.39,0.1 0.78,0.19 1.17,0.29 -0.38,-0.1 -0.77,-0.19 -1.17,-0.29z"/>
    <path class="fil18" d="M574 2711.06c-0.71,0 -1.42,-0.02 -2.13,-0.06 0.71,0.04 1.42,0.06 2.13,0.06z"/>
    <path class="fil18" d="M571.83 2711c-0.7,-0.03 -1.41,-0.03 -2.11,-0.05 0.7,0.02 1.41,0.02 2.11,0.05z"/>
    <path class="fil18" d="M562.1 2710.91c-0.69,0 -1.37,0.03 -2.06,0.03 0.69,0 1.37,-0.03 2.06,-0.03z"/>
    <path class="fil18" d="M232.28 2158.75c0.51,0.13 1.01,0.25 1.5,0.38 -0.5,-0.13 -1.01,-0.25 -1.5,-0.38z"/>
    <path class="fil18" d="M557.27 2711c-0.73,0.04 -1.44,0.06 -2.17,0.1 0.73,-0.03 1.44,-0.05 2.17,-0.1z"/>
    <path class="fil18" d="M554.83 2711.09c-0.63,0.04 -1.23,0.07 -1.84,0.11 0.61,-0.03 1.22,-0.06 1.84,-0.11z"/>
    <path class="fil18" d="M559.44 2710.95c-0.54,0.02 -1.1,0.02 -1.66,0.05 0.56,-0.03 1.11,-0.03 1.66,-0.05z"/>
    <path class="fil18" d="M238.81 2160.37c0.43,0.1 0.87,0.22 1.29,0.32 -0.42,-0.1 -0.86,-0.22 -1.29,-0.32z"/>
    <path class="fil18" d="M241.88 2161.16c1.54,0.41 3.04,0.83 4.54,1.24 -1.5,-0.41 -3.01,-0.83 -4.54,-1.24z"/>
    <path class="fil18" d="M585.78 2711.93c-0.55,-0.07 -1.1,-0.1 -1.65,-0.16 0.55,0.06 1.1,0.08 1.65,0.16z"/>
    <path class="fil18" d="M246.67 2162.47c0.38,0.1 0.76,0.19 1.15,0.32 -0.39,-0.13 -0.77,-0.22 -1.15,-0.32z"/>
    <path class="fil18" d="M588.44 2712.22c-0.7,-0.06 -1.39,-0.16 -2.08,-0.22 0.69,0.06 1.38,0.16 2.08,0.22z"/>
    <path class="fil18" d="M583.61 2711.74c-0.7,-0.06 -1.4,-0.13 -2.1,-0.19 0.7,0.06 1.4,0.13 2.1,0.19z"/>
    <path class="fil18" d="M578.83 2711.36c-0.71,-0.06 -1.41,-0.1 -2.12,-0.13 0.71,0.03 1.41,0.06 2.12,0.13z"/>
    <path class="fil18" d="M576.37 2711.2c-0.6,-0.03 -1.22,-0.06 -1.84,-0.11 0.63,0.04 1.24,0.07 1.84,0.11z"/>
    <path class="fil18" d="M240.32 2160.75c0.5,0.13 1.01,0.25 1.5,0.41 -0.5,-0.16 -1.01,-0.29 -1.5,-0.41z"/>
    <path class="fil18" d="M581.12 2711.52c-0.59,-0.03 -1.2,-0.1 -1.79,-0.13 0.59,0.03 1.2,0.1 1.79,0.13z"/>
    <path class="fil18" d="M235.64 2159.57c0.99,0.25 1.97,0.49 2.94,0.73 -0.97,-0.24 -1.96,-0.48 -2.94,-0.73z"/>
    <path class="fil18" d="M530.56 2713.39c-0.7,0.1 -1.4,0.18 -2.1,0.28 0.7,-0.1 1.4,-0.18 2.1,-0.28z"/>
    <path class="fil18" d="M528.26 2713.71c-0.66,0.1 -1.29,0.19 -1.94,0.29 0.65,-0.1 1.28,-0.19 1.94,-0.29z"/>
    <path class="fil18" d="M213.93 2154.78c0.52,0.1 1.04,0.19 1.56,0.29 -0.52,-0.1 -1.04,-0.19 -1.56,-0.29z"/>
    <path class="fil18" d="M535.48 2712.72c-0.71,0.11 -1.42,0.2 -2.12,0.3 0.7,-0.1 1.41,-0.19 2.12,-0.3z"/>
    <path class="fil18" d="M215.63 2155.09c1.09,0.22 2.19,0.44 3.29,0.67 -1.1,-0.22 -2.2,-0.44 -3.29,-0.67z"/>
    <path class="fil18" d="M532.98 2713.04c-0.61,0.08 -1.22,0.16 -1.83,0.25 0.61,-0.1 1.22,-0.17 1.83,-0.25z"/>
    <path class="fil18" d="M520.76 2714.91c-0.55,0.11 -1.11,0.2 -1.65,0.3 0.54,-0.1 1.1,-0.19 1.65,-0.3z"/>
    <path class="fil18" d="M525.66 2714.09c-0.6,0.1 -1.21,0.22 -1.81,0.32 0.6,-0.1 1.21,-0.22 1.81,-0.32z"/>
    <path class="fil18" d="M210.48 2154.14c0.53,0.1 1.05,0.19 1.57,0.29 -0.52,-0.1 -1.04,-0.19 -1.57,-0.29z"/>
    <path class="fil18" d="M523.48 2714.46c-0.69,0.11 -1.38,0.23 -2.07,0.36 0.69,-0.13 1.38,-0.25 2.07,-0.36z"/>
    <path class="fil18" d="M212.21 2154.46c0.55,0.1 1.09,0.19 1.63,0.32 -0.54,-0.13 -1.08,-0.22 -1.63,-0.32z"/>
    <path class="fil18" d="M230.68 2158.37c0.47,0.13 0.92,0.22 1.39,0.32 -0.47,-0.1 -0.92,-0.19 -1.39,-0.32z"/>
    <path class="fil18" d="M547.45 2711.55c-0.59,0.06 -1.19,0.1 -1.78,0.16 0.59,-0.06 1.19,-0.1 1.78,-0.16z"/>
    <path class="fil18" d="M537.72 2712.47c-0.56,0.06 -1.11,0.13 -1.67,0.19 0.56,-0.06 1.11,-0.13 1.67,-0.19z"/>
    <path class="fil18" d="M227.37 2157.6c1.06,0.22 2.11,0.48 3.15,0.73 -1.05,-0.25 -2.09,-0.51 -3.15,-0.73z"/>
    <path class="fil18" d="M550.19 2711.36c-0.69,0.06 -1.4,0.08 -2.09,0.16 0.69,-0.07 1.4,-0.1 2.09,-0.16z"/>
    <path class="fil18" d="M552.31 2711.23c-0.7,0.03 -1.4,0.1 -2.1,0.13 0.7,-0.03 1.4,-0.1 2.1,-0.13z"/>
    <path class="fil18" d="M545.3 2711.74c-0.73,0.03 -1.45,0.1 -2.16,0.19 0.71,-0.1 1.43,-0.16 2.16,-0.19z"/>
    <path class="fil18" d="M540.38 2712.19c-0.7,0.06 -1.39,0.15 -2.09,0.22 0.7,-0.07 1.39,-0.16 2.09,-0.22z"/>
    <path class="fil18" d="M218.95 2155.76c1.62,0.35 3.25,0.7 4.85,1.05 -1.6,-0.35 -3.23,-0.7 -4.85,-1.05z"/>
    <path class="fil18" d="M542.65 2711.96c-0.58,0.06 -1.18,0.1 -1.76,0.16 0.58,-0.06 1.18,-0.1 1.76,-0.16z"/>
    <path class="fil18" d="M224.06 2156.87c1.05,0.22 2.09,0.44 3.13,0.7 -1.04,-0.25 -2.08,-0.48 -3.13,-0.7z"/>
    <path class="fil18" d="M600.03 2713.93c-0.68,-0.13 -1.36,-0.22 -2.03,-0.36 0.68,0.14 1.36,0.23 2.03,0.36z"/>
    <polygon class="fil18" points="305.29,2182.34 305.69,2182.5 "/>
    <path class="fil18" d="M269.91 2169.44c1.65,0.53 3.27,1.07 4.84,1.61 -1.57,-0.54 -3.19,-1.08 -4.84,-1.61z"/>
    <polygon class="fil18" points="299.91,2180.21 300.64,2180.49 "/>
    <path class="fil18" d="M294.9 2178.26c0.82,0.29 1.6,0.61 2.35,0.89 -0.75,-0.28 -1.54,-0.6 -2.35,-0.89z"/>
    <path class="fil18" d="M297.73 2179.35c0.74,0.29 1.46,0.56 2.14,0.83 -0.68,-0.26 -1.4,-0.54 -2.14,-0.83z"/>
    <path class="fil18" d="M268.43 2168.96c0.42,0.13 0.84,0.28 1.24,0.4 -0.4,-0.13 -0.82,-0.28 -1.24,-0.4z"/>
    <path class="fil18" d="M304.17 2181.9c0.39,0.15 0.76,0.32 1.12,0.44 -0.36,-0.13 -0.73,-0.3 -1.12,-0.44z"/>
    <path class="fil18" d="M264.36 2167.65c0.4,0.14 0.81,0.25 1.2,0.38 -0.39,-0.13 -0.79,-0.24 -1.2,-0.38z"/>
    <path class="fil18" d="M595.33 2713.13c-1.41,-0.18 -2.82,-0.41 -4.23,-0.56 1.41,0.15 2.82,0.38 4.23,0.56z"/>
    <path class="fil18" d="M301.5 2180.8c0.38,0.17 0.74,0.33 1.1,0.46 -0.36,-0.13 -0.72,-0.29 -1.1,-0.46z"/>
    <path class="fil18" d="M302.93 2181.39c0.35,0.16 0.69,0.28 1.02,0.41 -0.33,-0.14 -0.67,-0.25 -1.02,-0.41z"/>
    <polygon class="fil18" points="300.75,2180.53 301.2,2180.68 "/>
    <path class="fil18" d="M284.64 2174.49c0.31,0.1 0.61,0.18 0.91,0.31 -0.3,-0.13 -0.6,-0.21 -0.91,-0.31z"/>
    <path class="fil18" d="M285.76 2174.86c0.29,0.1 0.56,0.2 0.84,0.32 -0.28,-0.08 -0.55,-0.22 -0.84,-0.32z"/>
    <path class="fil18" d="M280.06 2172.87c1.11,0.38 2.2,0.75 3.27,1.13 -1.07,-0.38 -2.16,-0.75 -3.27,-1.13z"/>
    <path class="fil18" d="M283.54 2174.07c0.34,0.14 0.69,0.25 1.03,0.38 -0.34,-0.13 -0.69,-0.24 -1.03,-0.38z"/>
    <path class="fil18" d="M276.44 2171.63c1.12,0.38 2.21,0.73 3.28,1.1 -1.07,-0.37 -2.16,-0.72 -3.28,-1.1z"/>
    <polygon class="fil18" points="294.12,2177.95 294.74,2178.2 "/>
    <path class="fil18" d="M286.95 2175.31c1.71,0.61 3.33,1.21 4.87,1.79 -1.55,-0.58 -3.17,-1.18 -4.87,-1.79z"/>
    <polygon class="fil18" points="293,2177.54 293.72,2177.78 "/>
    <path class="fil18" d="M275.05 2171.15c0.35,0.12 0.71,0.21 1.06,0.34 -0.35,-0.13 -0.71,-0.22 -1.06,-0.34z"/>
    <polygon class="fil18" points="292.24,2177.24 292.88,2177.51 "/>
    <path class="fil18" d="M265.67 2168.09c0.9,0.25 1.78,0.55 2.66,0.83 -0.88,-0.28 -1.76,-0.57 -2.66,-0.83z"/>
    <path class="fil18" d="M251.19 2163.71c0.48,0.17 0.96,0.29 1.44,0.41 -0.48,-0.13 -0.96,-0.24 -1.44,-0.41z"/>
    <path class="fil18" d="M602.29 2714.38c-0.59,-0.13 -1.18,-0.25 -1.77,-0.36 0.59,0.11 1.18,0.23 1.77,0.36z"/>
    <path class="fil18" d="M604.74 2714.84c-0.68,-0.12 -1.37,-0.28 -2.06,-0.4 0.69,0.13 1.38,0.29 2.06,0.4z"/>
    <path class="fil18" d="M252.69 2164.15c0.43,0.13 0.86,0.25 1.28,0.38 -0.42,-0.13 -0.85,-0.25 -1.28,-0.38z"/>
    <path class="fil18" d="M609.46 2715.9c-0.69,-0.17 -1.37,-0.32 -2.04,-0.48 0.68,0.16 1.36,0.31 2.04,0.48z"/>
    <path class="fil18" d="M606.88 2715.33c-0.57,-0.13 -1.13,-0.25 -1.71,-0.38 0.57,0.13 1.13,0.25 1.71,0.38z"/>
    <path class="fil18" d="M597.59 2713.52c-0.59,-0.1 -1.19,-0.19 -1.79,-0.3 0.6,0.11 1.2,0.2 1.79,0.3z"/>
    <path class="fil18" d="M249.74 2163.32c0.43,0.1 0.87,0.22 1.3,0.35 -0.43,-0.13 -0.87,-0.25 -1.3,-0.35z"/>
    <path class="fil18" d="M248.21 2162.88c0.43,0.13 0.88,0.25 1.3,0.38 -0.42,-0.13 -0.86,-0.25 -1.3,-0.38z"/>
    <path class="fil18" d="M518.56 2715.29c-0.71,0.17 -1.41,0.3 -2.11,0.41 0.7,-0.12 1.4,-0.24 2.11,-0.41z"/>
    <path class="fil18" d="M307.97 2183.45c0.51,0.22 0.96,0.41 1.35,0.57 -0.38,-0.16 -0.84,-0.35 -1.35,-0.57z"/>
    <path class="fil18" d="M611.48 2716.41c-0.59,-0.16 -1.19,-0.32 -1.79,-0.44 0.6,0.13 1.2,0.29 1.79,0.44z"/>
    <polygon class="fil18" points="309.33,2184.02 309.89,2184.28 "/>
    <path class="fil18" d="M258.57 2165.87c1.91,0.61 3.78,1.18 5.63,1.75 -1.84,-0.57 -3.72,-1.13 -5.63,-1.75z"/>
    <polygon class="fil18" points="310.14,2184.37 310.61,2184.55 "/>
    <path class="fil18" d="M306.39 2182.78c0.41,0.18 0.79,0.35 1.14,0.48 -0.35,-0.13 -0.73,-0.3 -1.14,-0.48z"/>
    <path class="fil18" d="M257.15 2165.45c0.48,0.16 0.94,0.29 1.41,0.41 -0.47,-0.13 -0.93,-0.25 -1.41,-0.41z"/>
    <path class="fil18" d="M614.11 2717.08c-0.67,-0.16 -1.35,-0.35 -2.01,-0.51 0.67,0.16 1.35,0.35 2.01,0.51z"/>
    <polygon class="fil18" points="310.86,2184.69 310.89,2184.69 "/>
    <path class="fil18" d="M254.26 2164.6c0.94,0.29 1.89,0.57 2.82,0.83 -0.93,-0.25 -1.88,-0.54 -2.82,-0.83z"/>
    <polygon class="fil18" points="310.64,2184.59 310.86,2184.69 "/>
    <path class="fil18" d="M186.47 2150.71c1.09,0.1 2.17,0.22 3.27,0.35 -1.1,-0.13 -2.18,-0.25 -3.27,-0.35z"/>
    <path class="fil18" d="M456.05 2732.91c-0.37,0.14 -0.74,0.29 -1.11,0.41 0.37,-0.13 0.74,-0.28 1.11,-0.41z"/>
    <path class="fil18" d="M172.74 2149.66c0.46,0.03 0.93,0.06 1.39,0.06 -0.46,0 -0.93,-0.03 -1.39,-0.06z"/>
    <path class="fil18" d="M454 2733.67c-0.58,0.22 -1.17,0.44 -1.76,0.67 0.59,-0.22 1.18,-0.44 1.76,-0.67z"/>
    <polygon class="fil18" points="446.29,2736.66 445.81,2736.85 "/>
    <path class="fil18" d="M458.54 2731.98c-0.51,0.19 -1.03,0.38 -1.55,0.57 0.52,-0.19 1.04,-0.38 1.55,-0.57z"/>
    <path class="fil18" d="M174.4 2149.75c1.06,0.06 2.12,0.13 3.19,0.18 -1.07,-0.05 -2.13,-0.12 -3.19,-0.18z"/>
    <path class="fil18" d="M165.82 2149.47c1.09,0 2.18,0.02 3.27,0.06 -1.09,-0.04 -2.18,-0.06 -3.27,-0.06z"/>
    <polygon class="fil18" points="449.2,2735.51 448.45,2735.8 "/>
    <path class="fil18" d="M169.23 2149.53c1.09,0.03 2.18,0.06 3.28,0.13 -1.1,-0.06 -2.19,-0.1 -3.28,-0.13z"/>
    <polygon class="fil18" points="451.23,2734.72 450.42,2735.04 "/>
    <path class="fil18" d="M460.67 2731.22c-0.31,0.1 -0.61,0.22 -0.92,0.32 0.31,-0.1 0.61,-0.22 0.92,-0.32z"/>
    <path class="fil18" d="M472.52 2727.15c-0.44,0.16 -0.9,0.29 -1.36,0.44 0.46,-0.16 0.91,-0.29 1.36,-0.44z"/>
    <path class="fil18" d="M181.33 2150.23c1.63,0.13 3.26,0.29 4.88,0.44 -1.62,-0.16 -3.25,-0.32 -4.88,-0.44z"/>
    <path class="fil18" d="M462.76 2730.49c-0.32,0.1 -0.65,0.22 -0.96,0.32 0.32,-0.1 0.65,-0.22 0.96,-0.32z"/>
    <path class="fil18" d="M477.32 2725.63c-0.41,0.13 -0.83,0.25 -1.24,0.38 0.41,-0.13 0.83,-0.25 1.24,-0.38z"/>
    <path class="fil18" d="M475.14 2726.3c-0.58,0.19 -1.18,0.38 -1.77,0.57 0.59,-0.19 1.19,-0.38 1.77,-0.57z"/>
    <path class="fil18" d="M470.42 2727.85c-0.52,0.16 -1.05,0.35 -1.56,0.51 0.51,-0.16 1.04,-0.35 1.56,-0.51z"/>
    <path class="fil18" d="M177.91 2149.98c1.06,0.06 2.12,0.13 3.17,0.22 -1.05,-0.1 -2.11,-0.16 -3.17,-0.22z"/>
    <polygon class="fil18" points="465.49,2729.51 464.65,2729.82 "/>
    <path class="fil18" d="M467.57 2728.81c-0.33,0.13 -0.66,0.22 -0.99,0.35 0.33,-0.13 0.66,-0.22 0.99,-0.35z"/>
    <polygon class="fil18" points="421.3,2747.37 420.83,2747.57 "/>
    <polygon class="fil18" points="419.65,2748.11 419.09,2748.38 "/>
    <polygon class="fil18" points="426.02,2745.22 425.31,2745.53 "/>
    <polygon class="fil18" points="424.13,2746.06 423.73,2746.25 "/>
    <path class="fil18" d="M154.06 2149.66c1.05,-0.06 2.11,-0.1 3.16,-0.13 -1.05,0.03 -2.11,0.06 -3.16,0.13z"/>
    <path class="fil18" d="M152.48 2149.75c0.48,-0.03 0.95,-0.06 1.43,-0.1 -0.48,0.03 -0.95,0.06 -1.43,0.1z"/>
    <path class="fil18" d="M480.11 2724.77c-0.66,0.19 -1.31,0.38 -1.97,0.6 0.66,-0.22 1.31,-0.41 1.97,-0.6z"/>
    <path class="fil18" d="M405.92 2754.69c-16.6,-163.84 -193.79,-494.31 -255.21,-604.84 -28.98,2.03 -54.57,11.66 -69,34.84 -49.37,79.35 10.57,416.04 65.22,514.77 20.87,37.7 45.32,66.28 67.57,87.21 32.18,30.29 107.08,73.33 135.97,67.83 23.96,-4.58 55.54,-39.61 55.54,-99.84l-0.1 0.03z"/>
    <polygon class="fil18" points="414.98,2750.3 414.8,2750.39 "/>
    <path class="fil18" d="M564.85 2710.88c0.72,0 1.44,0 2.16,0.03 -0.72,-0.03 -1.44,-0.03 -2.16,-0.03z"/>
    <path class="fil18" d="M150.74 2149.85c0.52,-0.03 1.04,-0.06 1.56,-0.1 -0.52,0.03 -1.04,0.06 -1.56,0.1z"/>
    <polygon class="fil18" points="437.04,2740.45 436.32,2740.72 "/>
    <polygon class="fil18" points="439.83,2739.26 439.28,2739.49 "/>
    <path class="fil18" d="M157.45 2149.53c1.05,-0.04 2.1,-0.06 3.15,-0.06 -1.05,0 -2.1,0.02 -3.15,0.06z"/>
    <path class="fil18" d="M442.08 2738.34c-0.38,0.16 -0.75,0.33 -1.13,0.48 0.38,-0.15 0.75,-0.32 1.13,-0.48z"/>
    <path class="fil18" d="M164.14 2149.44c0.52,0 1.04,0 1.55,0.03 -0.51,-0.03 -1.03,-0.03 -1.55,-0.03z"/>
    <path class="fil18" d="M162.43 2149.44c0.53,0 1.07,0 1.61,0 -0.54,0 -1.08,0 -1.61,0z"/>
    <path class="fil18" d="M160.84 2149.47c0.48,-0.03 0.95,-0.03 1.43,-0.03 -0.48,0 -0.95,0 -1.43,0.03z"/>
    <polygon class="fil18" points="430.63,2743.17 429.85,2743.52 "/>
    <path class="fil18" d="M444.51 2737.36c-0.33,0.13 -0.66,0.29 -0.99,0.42 0.33,-0.14 0.66,-0.3 0.99,-0.42z"/>
    <polygon class="fil18" points="435.2,2741.21 434.58,2741.49 "/>
    <polygon class="fil18" points="428.73,2744 428.25,2744.23 "/>
    <path class="fil18" d="M195.08 2151.69c0.55,0.1 1.08,0.16 1.63,0.22 -0.55,-0.06 -1.08,-0.13 -1.63,-0.22z"/>
    <path class="fil18" d="M491.91 2721.37c-0.67,0.19 -1.32,0.35 -1.99,0.54 0.67,-0.19 1.32,-0.35 1.99,-0.54z"/>
    <path class="fil18" d="M508.72 2717.27c-0.68,0.16 -1.36,0.32 -2.03,0.44 0.68,-0.13 1.36,-0.29 2.03,-0.44z"/>
    <path class="fil18" d="M494.06 2720.8c-0.49,0.13 -0.96,0.25 -1.43,0.38 0.47,-0.13 0.94,-0.25 1.43,-0.38z"/>
    <path class="fil18" d="M486.94 2722.74c-0.52,0.16 -1.05,0.32 -1.57,0.48 0.52,-0.16 1.05,-0.32 1.57,-0.48z"/>
    <path class="fil18" d="M511 2716.79c-0.52,0.13 -1.04,0.22 -1.57,0.35 0.53,-0.13 1.05,-0.22 1.57,-0.35z"/>
    <path class="fil18" d="M489.25 2722.1c-0.47,0.13 -0.92,0.25 -1.39,0.38 0.47,-0.13 0.92,-0.25 1.39,-0.38z"/>
    <path class="fil18" d="M203.64 2152.96c1.13,0.19 2.27,0.38 3.4,0.57 -1.13,-0.19 -2.27,-0.38 -3.4,-0.57z"/>
    <path class="fil18" d="M503.83 2718.38c-0.54,0.13 -1.08,0.25 -1.62,0.38 0.54,-0.13 1.08,-0.25 1.62,-0.38z"/>
    <path class="fil18" d="M501.67 2718.89c-0.66,0.16 -1.31,0.32 -1.97,0.48 0.66,-0.16 1.31,-0.32 1.97,-0.48z"/>
    <path class="fil18" d="M198.51 2152.17c1.1,0.16 2.19,0.35 3.29,0.51 -1.1,-0.16 -2.19,-0.35 -3.29,-0.51z"/>
    <path class="fil18" d="M196.74 2151.95c0.55,0.06 1.09,0.13 1.64,0.22 -0.55,-0.1 -1.09,-0.16 -1.64,-0.22z"/>
    <path class="fil18" d="M506.39 2717.78c-0.6,0.16 -1.22,0.29 -1.82,0.44 0.6,-0.16 1.22,-0.29 1.82,-0.44z"/>
    <path class="fil18" d="M202.04 2152.71c0.51,0.1 1.02,0.16 1.51,0.25 -0.5,-0.1 -1.01,-0.16 -1.51,-0.25z"/>
    <path class="fil18" d="M498.95 2719.56c-0.53,0.13 -1.07,0.25 -1.62,0.38 0.55,-0.13 1.09,-0.25 1.62,-0.38z"/>
    <path class="fil18" d="M496.8 2720.1c-0.67,0.16 -1.33,0.32 -2,0.51 0.67,-0.19 1.33,-0.35 2,-0.51z"/>
    <path class="fil18" d="M189.9 2151.06c1.1,0.13 2.2,0.25 3.29,0.41 -1.09,-0.16 -2.19,-0.29 -3.29,-0.41z"/>
    <path class="fil18" d="M482.16 2724.14c-0.53,0.16 -1.06,0.32 -1.6,0.48 0.54,-0.16 1.07,-0.32 1.6,-0.48z"/>
    <path class="fil18" d="M513.58 2716.29c-0.66,0.13 -1.31,0.25 -1.98,0.38 0.67,-0.13 1.32,-0.25 1.98,-0.38z"/>
    <path class="fil18" d="M207.05 2153.54c1.13,0.19 2.27,0.38 3.4,0.6 -1.13,-0.22 -2.27,-0.41 -3.4,-0.6z"/>
    <path class="fil18" d="M484.55 2723.44c-0.53,0.16 -1.05,0.32 -1.57,0.48 0.52,-0.16 1.04,-0.32 1.57,-0.48z"/>
    <path class="fil18" d="M193.4 2151.47c0.49,0.1 0.99,0.15 1.47,0.22 -0.49,-0.1 -0.99,-0.13 -1.47,-0.22z"/>
    <path class="fil18" d="M515.93 2715.81c-0.53,0.1 -1.06,0.22 -1.59,0.32 0.53,-0.1 1.06,-0.22 1.59,-0.32z"/>
    <polygon class="fil22" points="265.56,2168.03 265.67,2168.09 "/>
    <polygon class="fil22" points="201.81,2152.68 202.04,2152.71 "/>
    <polygon class="fil22" points="279.72,2172.73 280.06,2172.87 "/>
    <polygon class="fil22" points="264.19,2167.61 264.36,2167.65 "/>
    <polygon class="fil22" points="212.05,2154.43 212.21,2154.46 "/>
    <polygon class="fil22" points="160.6,2149.47 160.84,2149.47 "/>
    <polygon class="fil22" points="150.71,2149.85 150.74,2149.85 "/>
    <polygon class="fil22" points="162.27,2149.44 162.43,2149.44 "/>
    <polygon class="fil22" points="218.93,2155.76 218.95,2155.76 "/>
    <polygon class="fil22" points="213.84,2154.78 213.93,2154.78 "/>
    <polygon class="fil22" points="276.11,2171.49 276.44,2171.63 "/>
    <polygon class="fil22" points="207.04,2153.54 207.05,2153.54 "/>
    <polygon class="fil22" points="274.75,2171.05 275.05,2171.15 "/>
    <polygon class="fil22" points="210.45,2154.14 210.48,2154.14 "/>
    <polygon class="fil22" points="153.91,2149.66 154.06,2149.66 "/>
    <polygon class="fil22" points="269.67,2169.36 269.91,2169.44 "/>
    <polygon class="fil22" points="268.33,2168.92 268.43,2168.96 "/>
    <polygon class="fil22" points="238.59,2160.31 238.81,2160.37 "/>
    <polygon class="fil22" points="157.22,2149.53 157.45,2149.53 "/>
    <polygon class="fil22" points="203.55,2152.96 203.64,2152.96 "/>
    <polygon class="fil22" points="215.48,2155.06 215.63,2155.09 "/>
    <polygon class="fil22" points="152.29,2149.75 152.48,2149.75 "/>
    <polygon class="fil22" points="246.43,2162.4 246.67,2162.47 "/>
    <polygon class="fil22" points="181.08,2150.2 181.33,2150.23 "/>
    <polygon class="fil22" points="193.19,2151.47 193.4,2151.47 "/>
    <polygon class="fil22" points="233.79,2159.13 234.02,2159.16 "/>
    <polygon class="fil22" points="247.82,2162.78 248.21,2162.88 "/>
    <polygon class="fil22" points="194.87,2151.69 195.08,2151.69 "/>
    <polygon class="fil22" points="177.59,2149.93 177.91,2149.98 "/>
    <polygon class="fil22" points="283.33,2174 283.54,2174.07 "/>
    <polygon class="fil22" points="249.51,2163.26 249.74,2163.32 "/>
    <polygon class="fil22" points="189.74,2151.06 189.9,2151.06 "/>
    <polygon class="fil22" points="240.1,2160.69 240.32,2160.75 "/>
    <polygon class="fil22" points="235.19,2159.45 235.64,2159.57 "/>
    <polygon class="fil22" points="186.21,2150.68 186.47,2150.71 "/>
    <polygon class="fil22" points="241.83,2161.16 241.88,2161.16 "/>
    <polygon class="fil22" points="227.19,2157.57 227.37,2157.6 "/>
    <polygon class="fil22" points="198.38,2152.17 198.51,2152.17 "/>
    <polygon class="fil22" points="165.68,2149.47 165.82,2149.47 "/>
    <polygon class="fil22" points="232.07,2158.68 232.28,2158.75 "/>
    <polygon class="fil22" points="253.97,2164.53 254.26,2164.6 "/>
    <polygon class="fil22" points="257.07,2165.42 257.15,2165.45 "/>
    <polygon class="fil22" points="258.56,2165.87 258.57,2165.87 "/>
    <polygon class="fil22" points="223.8,2156.81 224.06,2156.87 "/>
    <polygon class="fil22" points="164.04,2149.44 164.14,2149.44 "/>
    <polygon class="fil22" points="172.52,2149.66 172.74,2149.66 "/>
    <polygon class="fil22" points="169.09,2149.53 169.23,2149.53 "/>
    <polygon class="fil22" points="251.05,2163.67 251.19,2163.71 "/>
    <polygon class="fil22" points="196.71,2151.92 196.74,2151.95 "/>
    <polygon class="fil22" points="252.63,2164.12 252.69,2164.15 "/>
    <polygon class="fil22" points="230.52,2158.34 230.68,2158.37 "/>
    <polygon class="fil22" points="174.13,2149.72 174.4,2149.75 "/>
    <polygon class="fil22" points="499.7,2719.37 498.95,2719.56 "/>
    <polygon class="fil22" points="492.63,2721.18 491.91,2721.37 "/>
    <polygon class="fil22" points="485.37,2723.21 484.55,2723.44 "/>
    <path class="fil22" d="M487.86 2722.48c-0.31,0.1 -0.61,0.19 -0.92,0.25 0.31,-0.06 0.61,-0.16 0.92,-0.25z"/>
    <polygon class="fil22" points="497.33,2719.94 496.8,2720.1 "/>
    <polygon class="fil22" points="494.8,2720.61 494.06,2720.8 "/>
    <polygon class="fil22" points="489.92,2721.91 489.25,2722.1 "/>
    <path class="fil22" d="M476.08 2726.01c-0.32,0.1 -0.63,0.19 -0.94,0.29 0.32,-0.1 0.63,-0.19 0.94,-0.29z"/>
    <polygon class="fil22" points="473.37,2726.87 472.52,2727.15 "/>
    <polygon class="fil22" points="480.56,2724.61 480.11,2724.77 "/>
    <polygon class="fil22" points="482.98,2723.91 482.16,2724.14 "/>
    <polygon class="fil22" points="478.14,2725.37 477.32,2725.63 "/>
    <polygon class="fil22" points="521.41,2714.82 520.76,2714.91 "/>
    <polygon class="fil22" points="471.17,2727.6 470.42,2727.85 "/>
    <polygon class="fil22" points="519.1,2715.2 518.56,2715.29 "/>
    <polygon class="fil22" points="523.85,2714.41 523.48,2714.46 "/>
    <polygon class="fil22" points="526.32,2714 525.66,2714.09 "/>
    <polygon class="fil22" points="516.46,2715.7 515.93,2715.81 "/>
    <polygon class="fil22" points="528.46,2713.67 528.26,2713.71 "/>
    <polygon class="fil22" points="511.6,2716.67 511,2716.79 "/>
    <polygon class="fil22" points="504.57,2718.22 503.83,2718.38 "/>
    <polygon class="fil22" points="506.69,2717.72 506.39,2717.78 "/>
    <polygon class="fil22" points="502.21,2718.76 501.67,2718.89 "/>
    <polygon class="fil22" points="514.34,2716.13 513.58,2716.29 "/>
    <polygon class="fil22" points="509.43,2717.14 508.72,2717.27 "/>
    <path class="fil22" d="M452.24 2734.34c-0.33,0.14 -0.68,0.25 -1.01,0.38 0.33,-0.13 0.68,-0.24 1.01,-0.38z"/>
    <path class="fil22" d="M434.58 2741.49c-1.31,0.55 -2.64,1.12 -3.95,1.68 1.31,-0.56 2.64,-1.13 3.95,-1.68z"/>
    <path class="fil22" d="M440.94 2738.82c-0.37,0.16 -0.74,0.3 -1.11,0.44 0.37,-0.15 0.74,-0.29 1.11,-0.44z"/>
    <path class="fil22" d="M428.25 2744.23c-0.75,0.32 -1.49,0.66 -2.24,0.99 0.74,-0.33 1.48,-0.67 2.24,-0.99z"/>
    <path class="fil22" d="M468.86 2728.36c-0.43,0.16 -0.86,0.29 -1.29,0.44 0.43,-0.16 0.86,-0.29 1.29,-0.44z"/>
    <path class="fil22" d="M425.31 2745.53c-0.39,0.18 -0.78,0.35 -1.18,0.53 0.39,-0.18 0.78,-0.35 1.18,-0.53z"/>
    <path class="fil22" d="M436.32 2740.72c-0.37,0.17 -0.74,0.32 -1.11,0.49 0.37,-0.17 0.74,-0.32 1.11,-0.49z"/>
    <path class="fil22" d="M429.85 2743.52c-0.37,0.16 -0.75,0.33 -1.12,0.48 0.37,-0.15 0.75,-0.32 1.12,-0.48z"/>
    <polygon class="fil22" points="564.38,2710.88 564.85,2710.88 "/>
    <path class="fil22" d="M414.8 2750.39c-2.96,1.4 -5.89,2.84 -8.78,4.27 2.89,-1.43 5.83,-2.87 8.78,-4.27z"/>
    <path class="fil22" d="M420.83 2747.57c-0.39,0.19 -0.78,0.37 -1.18,0.54 0.39,-0.17 0.78,-0.35 1.18,-0.54z"/>
    <path class="fil22" d="M423.73 2746.25c-0.82,0.35 -1.62,0.73 -2.43,1.11 0.81,-0.38 1.61,-0.76 2.43,-1.11z"/>
    <path class="fil22" d="M419.09 2748.38c-1.39,0.65 -2.74,1.27 -4.11,1.92 1.37,-0.65 2.72,-1.27 4.11,-1.92z"/>
    <polygon class="fil22" points="284.56,2174.45 284.64,2174.49 "/>
    <path class="fil22" d="M461.79 2730.81c-0.38,0.13 -0.74,0.29 -1.12,0.41 0.38,-0.13 0.74,-0.29 1.12,-0.41z"/>
    <path class="fil22" d="M456.99 2732.56c-0.31,0.14 -0.63,0.22 -0.94,0.35 0.32,-0.13 0.64,-0.21 0.94,-0.35z"/>
    <path class="fil22" d="M443.53 2737.78c-0.49,0.18 -0.97,0.37 -1.45,0.56 0.48,-0.19 0.96,-0.38 1.45,-0.56z"/>
    <path class="fil22" d="M466.58 2729.16c-0.37,0.13 -0.73,0.25 -1.09,0.35 0.36,-0.1 0.72,-0.22 1.09,-0.35z"/>
    <path class="fil22" d="M464.65 2729.82c-0.65,0.22 -1.26,0.44 -1.9,0.67 0.64,-0.22 1.25,-0.44 1.9,-0.67z"/>
    <path class="fil22" d="M459.75 2731.54c-0.4,0.16 -0.81,0.29 -1.21,0.44 0.4,-0.16 0.81,-0.29 1.21,-0.44z"/>
    <path class="fil22" d="M448.45 2735.8c-0.72,0.3 -1.44,0.57 -2.15,0.86 0.71,-0.29 1.43,-0.56 2.15,-0.86z"/>
    <path class="fil22" d="M445.81 2736.85c-0.43,0.17 -0.87,0.35 -1.29,0.51 0.42,-0.16 0.86,-0.34 1.29,-0.51z"/>
    <path class="fil22" d="M454.94 2733.32c-0.32,0.13 -0.64,0.26 -0.94,0.35 0.31,-0.08 0.63,-0.22 0.94,-0.35z"/>
    <path class="fil22" d="M450.42 2735.04c-0.4,0.16 -0.82,0.32 -1.22,0.48 0.4,-0.16 0.82,-0.32 1.22,-0.48z"/>
    <polygon class="fil22" points="531.15,2713.3 530.56,2713.39 "/>
    <path class="fil22" d="M439.28 2739.49c-0.75,0.32 -1.5,0.64 -2.25,0.96 0.75,-0.33 1.49,-0.65 2.25,-0.96z"/>
    <polygon class="fil22" points="310.08,2184.34 310.14,2184.37 "/>
    <polygon class="fil22" points="310.61,2184.55 310.64,2184.59 "/>
    <polygon class="fil22" points="612.09,2716.57 611.48,2716.41 "/>
    <polygon class="fil22" points="309.89,2184.28 310.08,2184.34 "/>
    <polygon class="fil22" points="309.32,2184.02 309.33,2184.02 "/>
    <polygon class="fil22" points="307.53,2183.26 307.97,2183.45 "/>
    <polygon class="fil22" points="602.69,2714.44 602.29,2714.38 "/>
    <polygon class="fil22" points="305.69,2182.5 306.39,2182.78 "/>
    <polygon class="fil22" points="600.53,2714.02 600.03,2713.93 "/>
    <polygon class="fil22" points="609.69,2715.97 609.46,2715.9 "/>
    <polygon class="fil22" points="605.18,2714.95 604.74,2714.84 "/>
    <polygon class="fil22" points="607.41,2715.43 606.88,2715.33 "/>
    <polygon class="fil22" points="303.95,2181.8 304.17,2181.9 "/>
    <polygon class="fil22" points="294.74,2178.2 294.9,2178.26 "/>
    <polygon class="fil22" points="292.88,2177.51 293,2177.54 "/>
    <polygon class="fil22" points="597.99,2713.57 597.59,2713.52 "/>
    <polygon class="fil22" points="291.82,2177.1 292.24,2177.24 "/>
    <polygon class="fil22" points="286.6,2175.18 286.95,2175.31 "/>
    <polygon class="fil22" points="285.55,2174.8 285.76,2174.86 "/>
    <polygon class="fil22" points="293.72,2177.78 294.12,2177.95 "/>
    <polygon class="fil22" points="302.6,2181.26 302.93,2181.39 "/>
    <polygon class="fil22" points="301.2,2180.68 301.5,2180.8 "/>
    <polygon class="fil22" points="299.87,2180.18 299.91,2180.21 "/>
    <polygon class="fil22" points="297.25,2179.15 297.73,2179.35 "/>
    <polygon class="fil22" points="300.64,2180.49 300.75,2180.53 "/>
    <polygon class="fil22" points="536.04,2712.66 535.48,2712.72 "/>
    <polygon class="fil22" points="552.98,2711.2 552.31,2711.23 "/>
    <polygon class="fil22" points="555.1,2711.09 554.83,2711.09 "/>
    <polygon class="fil22" points="550.22,2711.36 550.19,2711.36 "/>
    <polygon class="fil22" points="548.1,2711.52 547.45,2711.55 "/>
    <polygon class="fil22" points="557.78,2711 557.27,2711 "/>
    <polygon class="fil22" points="560.05,2710.95 559.44,2710.95 "/>
    <polygon class="fil22" points="538.29,2712.41 537.72,2712.47 "/>
    <polygon class="fil22" points="533.36,2713.01 532.98,2713.04 "/>
    <polygon class="fil22" points="562.62,2710.91 562.1,2710.91 "/>
    <polygon class="fil22" points="543.14,2711.93 542.65,2711.96 "/>
    <polygon class="fil22" points="540.89,2712.12 540.38,2712.19 "/>
    <polygon class="fil22" points="545.67,2711.71 545.3,2711.74 "/>
    <polygon class="fil22" points="569.72,2710.95 569.19,2710.95 "/>
    <polygon class="fil22" points="584.13,2711.77 583.61,2711.74 "/>
    <polygon class="fil22" points="586.36,2711.99 585.78,2711.93 "/>
    <polygon class="fil22" points="588.7,2712.25 588.44,2712.22 "/>
    <polygon class="fil22" points="581.51,2711.55 581.12,2711.52 "/>
    <polygon class="fil22" points="591.11,2712.57 590.57,2712.47 "/>
    <polygon class="fil22" points="595.8,2713.22 595.33,2713.13 "/>
    <polygon class="fil22" points="571.87,2711 571.83,2711 "/>
    <polygon class="fil22" points="567.28,2710.91 567.01,2710.91 "/>
    <polygon class="fil22" points="574.53,2711.09 574,2711.06 "/>
    <polygon class="fil22" points="579.33,2711.39 578.83,2711.36 "/>
    <polygon class="fil22" points="576.71,2711.23 576.37,2711.2 "/>
    <path class="fil22" d="M406.02 2754.66c2.89,-1.43 5.83,-2.87 8.78,-4.27l0.18 -0.08c1.37,-0.65 2.73,-1.27 4.11,-1.92l0.56 -0.28c0.39,-0.17 0.78,-0.35 1.18,-0.54l0.48 -0.2c0.81,-0.38 1.61,-0.76 2.43,-1.11l0.4 -0.19c0.4,-0.18 0.78,-0.35 1.18,-0.53l0.71 -0.32c0.74,-0.33 1.48,-0.67 2.24,-0.99l0.48 -0.23c0.37,-0.15 0.75,-0.32 1.12,-0.48l0.77 -0.35c1.31,-0.56 2.64,-1.13 3.95,-1.68l0.63 -0.28c0.37,-0.17 0.74,-0.32 1.11,-0.46l0.72 -0.31c0.75,-0.33 1.49,-0.65 2.25,-0.96l0.55 -0.22c0.36,-0.15 0.74,-0.29 1.11,-0.44 0.37,-0.15 0.75,-0.32 1.13,-0.48 0.48,-0.19 0.96,-0.38 1.45,-0.56 0.33,-0.14 0.66,-0.3 0.99,-0.42 0.43,-0.16 0.86,-0.34 1.29,-0.51l0.49 -0.19c0.71,-0.29 1.43,-0.56 2.15,-0.86l0.75 -0.29c0.4,-0.16 0.82,-0.32 1.22,-0.48l0.82 -0.32c0.33,-0.13 0.68,-0.24 1.01,-0.38 0.59,-0.22 1.18,-0.44 1.76,-0.67 0.31,-0.13 0.63,-0.22 0.94,-0.35 0.37,-0.13 0.74,-0.28 1.11,-0.41 0.32,-0.13 0.64,-0.21 0.94,-0.35 0.52,-0.19 1.04,-0.38 1.55,-0.57 0.4,-0.16 0.81,-0.29 1.21,-0.44 0.31,-0.1 0.61,-0.22 0.92,-0.32 0.38,-0.13 0.75,-0.29 1.12,-0.41 0.33,-0.1 0.65,-0.22 0.96,-0.32 0.64,-0.25 1.25,-0.44 1.89,-0.67l0.85 -0.32c0.36,-0.1 0.72,-0.22 1.09,-0.35 0.33,-0.13 0.66,-0.25 0.99,-0.35 0.43,-0.16 0.86,-0.29 1.29,-0.44 0.51,-0.16 1.04,-0.35 1.56,-0.51l0.75 -0.25c0.46,-0.16 0.9,-0.29 1.36,-0.44l0.85 -0.29c0.59,-0.19 1.19,-0.38 1.77,-0.57 0.32,-0.1 0.63,-0.19 0.94,-0.29 0.41,-0.13 0.83,-0.25 1.24,-0.38l0.82 -0.25c0.66,-0.22 1.31,-0.41 1.97,-0.6l0.46 -0.16c0.54,-0.16 1.07,-0.32 1.6,-0.48l0.81 -0.22c0.53,-0.16 1.05,-0.32 1.58,-0.48l0.83 -0.22c0.52,-0.16 1.05,-0.32 1.57,-0.48 0.31,-0.06 0.61,-0.16 0.92,-0.25 0.47,-0.13 0.92,-0.25 1.39,-0.38l0.67 -0.19c0.67,-0.19 1.31,-0.35 1.98,-0.54l0.73 -0.19c0.47,-0.13 0.94,-0.25 1.43,-0.38l0.74 -0.19c0.67,-0.19 1.33,-0.35 2,-0.51l0.53 -0.16c0.55,-0.13 1.09,-0.25 1.62,-0.38l0.74 -0.19c0.66,-0.16 1.31,-0.32 1.97,-0.48l0.54 -0.13c0.54,-0.13 1.08,-0.25 1.62,-0.38l0.74 -0.16c0.6,-0.16 1.22,-0.29 1.83,-0.44l0.29 -0.06c0.68,-0.13 1.36,-0.29 2.03,-0.44l0.71 -0.13c0.53,-0.13 1.05,-0.22 1.57,-0.35l0.6 -0.13c0.67,-0.13 1.32,-0.25 1.98,-0.38l0.75 -0.16c0.54,-0.1 1.06,-0.22 1.59,-0.32l0.53 -0.11c0.7,-0.12 1.4,-0.24 2.11,-0.37l0.54 -0.13c0.54,-0.1 1.1,-0.19 1.65,-0.3l0.66 -0.08c0.69,-0.13 1.38,-0.25 2.08,-0.36l0.36 -0.05c0.6,-0.1 1.21,-0.22 1.81,-0.32l0.66 -0.1c0.65,-0.1 1.28,-0.19 1.94,-0.29l0.2 -0.04c0.7,-0.1 1.4,-0.18 2.1,-0.28l0.59 -0.1c0.61,-0.1 1.22,-0.17 1.83,-0.25l0.38 -0.03c0.7,-0.1 1.41,-0.19 2.12,-0.3l0.56 -0.05c0.56,-0.06 1.11,-0.13 1.67,-0.19l0.57 -0.06c0.7,-0.07 1.39,-0.16 2.09,-0.22l0.52 -0.06c0.58,-0.06 1.18,-0.1 1.76,-0.16l0.49 -0.03c0.71,-0.1 1.43,-0.16 2.16,-0.22l0.37 0c0.59,-0.06 1.2,-0.1 1.78,-0.16l0.64 -0.03c0.7,-0.07 1.41,-0.1 2.1,-0.16l0.03 0c0.7,-0.03 1.41,-0.1 2.1,-0.13l0.67 -0.03c0.61,-0.03 1.22,-0.06 1.84,-0.11l0.28 0c0.73,-0.03 1.44,-0.05 2.17,-0.1l0.52 0c0.55,-0.03 1.11,-0.03 1.65,-0.03l0.6 -0.02c0.69,0 1.38,-0.03 2.06,-0.03l0.52 0c0.58,0 1.18,-0.03 1.76,-0.03l0.47 0c0.72,0 1.44,0 2.16,0.03l0.28 0c0.64,0 1.27,0 1.92,0.03l0.52 0c0.7,0.02 1.41,0.02 2.12,0.05l0.03 0c0.71,0.04 1.42,0.04 2.14,0.06l0.52 0.03c0.63,0.04 1.24,0.07 1.84,0.11l0.34 0.03c0.71,0.03 1.41,0.06 2.12,0.13l0.5 0.03c0.6,0.03 1.2,0.05 1.79,0.13l0.39 0.03c0.7,0.06 1.4,0.13 2.1,0.16l0.52 0.06c0.55,0.06 1.1,0.08 1.65,0.16l0.58 0.06c0.69,0.06 1.38,0.16 2.08,0.22l0.26 0.03c0.63,0.08 1.25,0.16 1.86,0.22l0.54 0.1c1.41,0.15 2.82,0.38 4.23,0.56l0.47 0.1c0.59,0.11 1.2,0.2 1.79,0.3l0.4 0.05c0.68,0.14 1.36,0.23 2.03,0.36l0.5 0.08c0.59,0.11 1.18,0.23 1.77,0.33l0.39 0.1c0.69,0.13 1.38,0.29 2.06,0.4l0.43 0.11c0.56,0.13 1.13,0.25 1.71,0.38l0.53 0.1c0.68,0.16 1.36,0.31 2.04,0.48l0.23 0.06c0.6,0.13 1.2,0.29 1.79,0.44l0.61 0.16c0.67,0.16 1.35,0.35 2.01,0.51 0,0 -251.65,-513.8 -303.22,-532.39l-0.03 0 -0.21 -0.11 -0.03 -0.03 -0.48 -0.18 -0.05 -0.03 -0.2 -0.06 -0.55 -0.25 -0.01 0c-0.38,-0.16 -0.83,-0.35 -1.35,-0.57l-0.44 -0.19c-0.35,-0.13 -0.73,-0.3 -1.14,-0.48l-0.71 -0.29 -0.38 -0.16c-0.36,-0.13 -0.73,-0.3 -1.12,-0.44l-0.22 -0.1c-0.33,-0.14 -0.67,-0.25 -1.02,-0.41l-0.33 -0.13c-0.36,-0.13 -0.72,-0.29 -1.1,-0.46l-0.31 -0.13 -0.44 -0.15 -0.11 -0.04 -0.73 -0.31 -0.04 0c-0.68,-0.26 -1.4,-0.54 -2.14,-0.83l-0.48 -0.2c-0.75,-0.28 -1.54,-0.6 -2.35,-0.89l-0.16 -0.06 -0.63 -0.24 -0.4 -0.17 -0.72 -0.24 -0.12 -0.03 -0.64 -0.26 -0.42 -0.15c-1.55,-0.58 -3.17,-1.18 -4.87,-1.81l-0.35 -0.11c-0.28,-0.12 -0.55,-0.22 -0.85,-0.32l-0.2 -0.06c-0.3,-0.13 -0.6,-0.21 -0.91,-0.31l-0.07 -0.04c-0.34,-0.13 -0.69,-0.24 -1.03,-0.38l-0.2 -0.06c-1.07,-0.38 -2.16,-0.75 -3.27,-1.13l-0.34 -0.14c-1.07,-0.37 -2.16,-0.72 -3.28,-1.1l-0.33 -0.14c-0.35,-0.13 -0.71,-0.22 -1.06,-0.34l-0.3 -0.11c-1.57,-0.54 -3.19,-1.08 -4.84,-1.61l-0.24 -0.07c-0.4,-0.13 -0.82,-0.28 -1.24,-0.4l-0.1 -0.04c-0.88,-0.28 -1.76,-0.57 -2.65,-0.83l-0.13 -0.06c-0.39,-0.13 -0.79,-0.24 -1.2,-0.38l-0.16 -0.03c-1.85,-0.57 -3.73,-1.13 -5.65,-1.75 -0.47,-0.13 -0.93,-0.28 -1.41,-0.41l-0.07 -0.03c-0.93,-0.25 -1.88,-0.54 -2.82,-0.83l-0.29 -0.06c-0.42,-0.13 -0.85,-0.25 -1.28,-0.38l-0.05 -0.03c-0.48,-0.13 -0.96,-0.24 -1.44,-0.41l-0.16 -0.03c-0.43,-0.13 -0.86,-0.25 -1.29,-0.35l-0.23 -0.06c-0.42,-0.13 -0.87,-0.25 -1.3,-0.38l-0.38 -0.1c-0.39,-0.13 -0.77,-0.22 -1.15,-0.32l-0.24 -0.06c-1.5,-0.41 -3.01,-0.83 -4.54,-1.24l-0.05 0c-0.51,-0.16 -1.01,-0.29 -1.5,-0.41l-0.22 -0.06c-0.42,-0.1 -0.86,-0.22 -1.29,-0.32l-0.22 -0.06c-0.97,-0.24 -1.96,-0.48 -2.94,-0.73l-0.46 -0.13c-0.38,-0.1 -0.77,-0.19 -1.17,-0.29l-0.23 -0.03c-0.5,-0.13 -1,-0.25 -1.5,-0.38l-0.21 -0.06c-0.47,-0.1 -0.92,-0.19 -1.39,-0.32l-0.17 -0.03c-1.04,-0.25 -2.1,-0.51 -3.15,-0.73l-0.18 -0.03c-1.04,-0.25 -2.08,-0.48 -3.13,-0.7l-0.26 -0.06c-1.6,-0.35 -3.22,-0.7 -4.85,-1.05l-0.02 0c-1.1,-0.22 -2.2,-0.44 -3.29,-0.67l-0.15 -0.03c-0.53,-0.1 -1.04,-0.19 -1.56,-0.29l-0.08 -0.03c-0.54,-0.1 -1.08,-0.19 -1.63,-0.29l-0.16 -0.03c-0.52,-0.1 -1.04,-0.19 -1.57,-0.29l-0.03 0c-1.13,-0.22 -2.27,-0.41 -3.4,-0.6l-0.01 0c-1.13,-0.19 -2.27,-0.38 -3.4,-0.57l-0.08 0c-0.5,-0.1 -1.01,-0.19 -1.51,-0.25l-0.23 -0.03c-1.09,-0.16 -2.19,-0.35 -3.29,-0.51l-0.13 0c-0.54,-0.1 -1.09,-0.16 -1.64,-0.22l-0.03 -0.03c-0.55,-0.06 -1.08,-0.13 -1.63,-0.22l-0.21 -0.03c-0.49,-0.04 -0.99,-0.1 -1.47,-0.19l-0.2 0c-1.09,-0.16 -2.19,-0.29 -3.29,-0.41l-0.17 0c-1.09,-0.13 -2.18,-0.25 -3.25,-0.35l-0.26 -0.03c-1.62,-0.16 -3.25,-0.32 -4.88,-0.44l-0.25 -0.03c-1.05,-0.1 -2.11,-0.16 -3.17,-0.22l-0.32 -0.04c-1.07,-0.05 -2.13,-0.12 -3.18,-0.18l-0.29 -0.03c-0.46,0 -0.93,-0.03 -1.4,-0.06l-0.21 0c-1.09,-0.06 -2.19,-0.1 -3.28,-0.13l-0.14 0c-1.09,-0.04 -2.18,-0.06 -3.27,-0.06l-0.14 0c-0.52,-0.03 -1.03,-0.03 -1.55,-0.03l-0.1 0c-0.54,0 -1.08,0 -1.61,0l-0.16 0c-0.48,0 -0.95,0 -1.44,0l-0.23 0.03c-1.05,0 -2.1,0.02 -3.15,0.06l-0.23 0c-1.05,0.03 -2.11,0.06 -3.16,0.13l-0.15 0c-0.48,0.03 -0.95,0.06 -1.43,0.1l-0.19 0c-0.52,0.03 -1.04,0.06 -1.56,0.1l-0.02 0c61.42,110.52 238.61,441 255.21,604.84l0.1 -0.03z"/>
    <path class="fil23" d="M393.12 2687.77l0 0c-18.73,-71.93 -54.05,-159.52 -92.87,-244.35l0 0c38.84,84.83 74.14,172.42 92.87,244.35z"/>
    <path class="fil24" d="M429.12 2688.12c-12.35,0 -24.44,-0.1 -36.01,-0.35 -18.73,-71.93 -54.04,-159.52 -92.87,-244.35l246.96 140.25c6.94,13.7 24.97,48.92 50.18,99.59 -44.43,2.22 -109.45,4.86 -168.26,4.86z"/>
    <path class="fil20" d="M393.12 2687.77c-36.03,-0.83 -66.96,-3.05 -85.26,-7.53 -27.79,-6.83 -75.46,-48.98 -123.7,-98.42 -71.28,-73.04 -114.09,-169.17 -120.44,-271.05 -0.03,-0.57 -0.07,-1.19 -0.11,-1.78l236.63 134.43c38.83,84.83 74.14,172.42 92.87,244.35z"/>
    <path class="fil13" d="M833.15 2669.43l-471.54 0c-19.03,0 -34.45,-15.41 -34.45,-34.43l0 -471.55c0,-19 15.42,-34.43 34.45,-34.43l471.54 0c19.03,0 34.44,15.42 34.44,34.43l0 471.55c0,19.02 -15.41,34.43 -34.44,34.43z"/>
    <path class="fil25" d="M569.03 2465.5c18.66,58.78 68.2,69.3 121.86,53.4 17.39,-5.15 34.77,8.31 34.77,26.45l0 1.97c0,11.89 -7.64,22.37 -18.87,26.23 -90.72,31.09 -189.65,4.51 -213.19,-108.05l-16.46 0c-11.67,0 -21.12,-9.44 -21.12,-21.11 0,-11.65 9.45,-21.12 21.12,-21.12l11.53 0c-1.21,-11.26 -0.43,-32.68 0.54,-44.7l-12.07 0c-11.67,0 -21.12,-9.47 -21.12,-21.13 0,-11.67 9.45,-21.11 21.12,-21.11l19.2 0c26.09,-105.41 115.37,-140.66 208.68,-115.89 12.12,3.21 20.65,14.17 20.65,26.73l0 5.53c0,18.06 -17.23,31.54 -34.57,26.48 -53.74,-15.6 -102.71,-3.21 -122.06,57.15l78.17 0c11.66,0 21.13,9.44 21.13,21.11 0,11.66 -9.47,21.13 -21.13,21.13l-87.23 0c-0.89,8.75 -0.71,35.86 0,44.7l87.23 0c11.66,0 21.13,9.47 21.13,21.12 0,11.67 -9.47,21.11 -21.13,21.11l-78.17 0z"/>
    <path class="fil26" d="M639.66 2574.29c3.86,0.28 72.39,26.17 118.99,0.92 21.16,-11.48 46.04,-4.77 36.34,17.26 -9.68,22.03 -53.95,12.69 -60.13,18.85 -6.15,6.18 76.5,51.38 99.07,55.22 22.57,3.83 -14.44,23.23 -23.25,23.23 -8.82,0 -1.77,3.54 -10.58,12.33 -8.81,8.81 -30.16,6.72 -40.54,8.81 -33.89,6.83 -123.95,-55.41 -137.51,-68.99 -13.55,-13.55 17.63,-67.64 17.63,-67.64z"/>
    <path class="fil27" d="M154.06 2149.66c0,0 35.84,40.31 56.34,82.65 20.7,42.69 135.63,252.68 148.33,252.68 12.7,0 296.38,92.39 296.38,92.39 0,0 -19.85,41.01 -19.85,86.81 0,0 -304.97,-49.34 -327.89,-49.34 -22.91,0 -49.36,-40.55 -72.28,-63.48 -22.91,-22.91 -136.85,-126.61 -169.78,-207.87 -32.95,-81.24 -15.24,-211.49 88.76,-193.84z"/>
    <polygon class="fil26" points="261.01,2037.89 297.73,2200.68 154.06,2149.66 182.17,2038.44 "/>
    <path class="fil28" d="M261.01 2037.89l-78.85 0.55 -6.53 25.84c22.54,22.86 49.63,41.26 71.71,46.41 8.76,2.07 19.27,2.16 30.28,0.86l-16.61 -73.66z"/>
    <path class="fil26" d="M202.39 1881.4c0,0 24.62,0.22 54.61,19.86 30,19.64 57.43,74.48 57.43,74.48 0,0 13.74,34.81 15.54,55.25 1.78,20.43 -70.52,53.5 -106.4,48.86 -35.88,-4.64 -82.89,-45.23 -94.87,-82.27 -11.98,-37.02 57.68,-118.24 73.69,-116.18z"/>
    <path class="fil28" d="M267.61 1909.69c-3.46,-3.22 -7.02,-6.07 -10.61,-8.43 -29.99,-19.64 -54.61,-19.86 -54.61,-19.86 -7.58,-0.99 -27.21,16.72 -44.5,39.58l12.37 -0.79c0,0 41.35,11.35 82.18,-3.44 5.48,-1.96 10.53,-4.39 15.17,-7.04z"/>
    <path class="fil1" d="M170.26 1920.18c0,0 13.86,30.32 22.93,72.63 9.09,42.32 4.44,85.13 4.44,85.13 -30.02,15.42 -78.29,13.95 -119.43,-39.41 -41.15,-53.38 5.46,-97.03 15.88,-105.07 10.42,-8.04 -5.83,-11 1.48,-32.08 7.3,-21.11 20.17,-7.82 34.17,-22.5 14.02,-14.65 -22.72,-45.3 3.34,-69.27 26.05,-23.97 60.02,22.34 60.02,22.34 0,0 14.38,-45.86 40.66,-19.74 26.27,26.16 27.35,44.6 5.89,73.05 -21.45,28.44 -69.39,34.91 -69.39,34.91z"/>
    <path class="fil26" d="M193.4 1973.33c0,0 -32.55,-15.73 -32.55,11.82 0,27.56 11.14,42.31 27.26,35.41 16.12,-6.86 5.3,-47.24 5.3,-47.24z"/>
    <path class="fil1" d="M5214.44 3568.49l-3005.31 0c-70.33,0 -127.36,-56.99 -127.36,-127.34l0 -2385.51c0,-70.33 57.02,-127.34 127.36,-127.34l3005.31 0c70.31,0 127.33,57.01 127.33,127.34l0 2385.51c0,70.35 -57.02,127.34 -127.33,127.34z"/>
    <path class="fil29" d="M2140.83 3443.51l0 -2390.23c0,-39.07 31.67,-70.74 70.74,-70.74l3000.4 0c39.07,0 70.76,31.67 70.76,70.74l0 2390.23c0,39.07 -31.7,70.75 -70.76,70.75l-3000.4 0c-39.07,0 -70.74,-31.69 -70.74,-70.75z"/>
    <path class="fil30" d="M5208.93 982.54l-2994.29 0c-40.7,0 -73.81,30.42 -73.81,67.82l0 252.27 3141.91 0 0 -252.27c0,-37.4 -33.13,-67.82 -73.82,-67.82z"/>
    <polygon class="fil13" points="2239.51,1106.95 2373.88,1178.22 2373.88,1035.67 "/>
    <polygon class="fil14" points="2140.82,1355.08 5282.75,1355.08 5282.75,1228.49 2140.82,1228.49 "/>
    <polygon class="fil31" points="2140.82,3436.44 5282.75,3436.44 5282.75,1378.59 2140.82,1378.59 "/>
    <polygon class="fil14" points="2619.11,2814.51 3132.81,2814.51 3132.81,2608.34 2619.11,2608.34 "/>
    <polygon class="fil14" points="2619.11,2575.77 3132.81,2575.77 3132.81,2369.63 2619.11,2369.63 "/>
    <polygon class="fil14" points="2619.11,3291.94 3132.81,3291.94 3132.81,3085.76 2619.11,3085.76 "/>
    <polygon class="fil14" points="2619.11,3053.21 3132.81,3053.21 3132.81,2847.06 2619.11,2847.06 "/>
    <polygon class="fil14" points="2619.11,1888.58 3132.81,1888.58 3132.81,1724.9 2619.11,1724.9 "/>
    <polygon class="fil14" points="2619.11,2098.35 3132.81,2098.35 3132.81,1921.14 2619.11,1921.14 "/>
    <polygon class="fil14" points="2636.81,2082.07 3115.07,2082.07 3115.07,1937.41 2636.81,1937.41 "/>
    <polygon class="fil14" points="2619.11,2337.08 3132.81,2337.08 3132.81,2130.91 2619.11,2130.91 "/>
    <polygon class="fil14" points="4266.48,3053.21 4780.18,3053.21 4780.18,2847.06 4266.48,2847.06 "/>
    <polygon class="fil14" points="3168.23,3291.94 3681.92,3291.94 3681.92,3085.76 3168.23,3085.76 "/>
    <polygon class="fil14" points="4266.48,2814.51 4780.18,2814.51 4780.18,2608.34 4266.48,2608.34 "/>
    <polygon class="fil14" points="4266.48,2337.08 4780.18,2337.08 4780.18,2130.91 4266.48,2130.91 "/>
    <polygon class="fil14" points="4266.48,2575.77 4780.18,2575.77 4780.18,2369.63 4266.48,2369.63 "/>
    <polygon class="fil14" points="3717.36,3291.94 4231.05,3291.94 4231.05,3085.76 3717.36,3085.76 "/>
    <polygon class="fil14" points="4266.48,3291.94 4780.18,3291.94 4780.18,3085.76 4266.48,3085.76 "/>
    <polygon class="fil14" points="2619.11,1692.35 3132.81,1692.35 3132.81,1528.68 2619.11,1528.68 "/>
    <polygon class="fil14" points="3168.23,3053.21 3681.92,3053.21 3681.92,2847.06 3168.23,2847.06 "/>
    <polygon class="fil14" points="3168.23,2814.51 3681.92,2814.51 3681.92,2608.34 3168.23,2608.34 "/>
    <polygon class="fil14" points="4266.48,2098.35 4780.18,2098.35 4780.18,1921.14 4266.48,1921.14 "/>
    <polygon class="fil14" points="3168.23,1692.35 3681.92,1692.35 3681.92,1528.68 3168.23,1528.68 "/>
    <polygon class="fil14" points="3168.23,1888.58 3681.92,1888.58 3681.92,1724.9 3168.23,1724.9 "/>
    <polygon class="fil14" points="3168.23,2337.08 3681.92,2337.08 3681.92,2130.91 3168.23,2130.91 "/>
    <polygon class="fil14" points="3717.36,3053.21 4231.05,3053.21 4231.05,2847.06 3717.36,2847.06 "/>
    <polygon class="fil14" points="3168.23,2098.35 3681.92,2098.35 3681.92,1921.14 3168.23,1921.14 "/>
    <polygon class="fil14" points="3168.23,2575.77 3681.92,2575.77 3681.92,2369.63 3168.23,2369.63 "/>
    <polygon class="fil14" points="3717.36,1888.58 4231.05,1888.58 4231.05,1724.9 3717.36,1724.9 "/>
    <polygon class="fil14" points="3717.36,2098.35 4231.05,2098.35 4231.05,1921.14 3717.36,1921.14 "/>
    <polygon class="fil14" points="3717.36,2814.51 4231.05,2814.51 4231.05,2608.34 3717.36,2608.34 "/>
    <polygon class="fil14" points="3717.36,1692.35 4231.05,1692.35 4231.05,1528.68 3717.36,1528.68 "/>
    <polygon class="fil14" points="3717.36,2337.08 4231.05,2337.08 4231.05,2130.91 3717.36,2130.91 "/>
    <polygon class="fil14" points="3717.36,2575.77 4231.05,2575.77 4231.05,2369.63 3717.36,2369.63 "/>
    <polygon class="fil14" points="4815.61,3291.94 5265.01,3291.94 5265.01,3085.76 4815.61,3085.76 "/>
    <polygon class="fil14" points="3168.23,3420.17 3681.92,3420.17 3681.92,3324.49 3168.23,3324.49 "/>
    <polygon class="fil14" points="3717.36,3420.17 4231.05,3420.17 4231.05,3324.49 3717.36,3324.49 "/>
    <polygon class="fil14" points="4266.48,3420.17 4780.18,3420.17 4780.18,3324.49 4266.48,3324.49 "/>
    <polygon class="fil14" points="2158.54,3420.17 2583.67,3420.17 2583.67,3324.49 2158.54,3324.49 "/>
    <polygon class="fil14" points="2158.54,3291.94 2583.67,3291.94 2583.67,3085.76 2158.54,3085.76 "/>
    <polygon class="fil14" points="2619.11,3420.17 3132.81,3420.17 3132.81,3324.49 2619.11,3324.49 "/>
    <polygon class="fil14" points="4815.61,3420.17 5265.01,3420.17 5265.01,3324.49 4815.61,3324.49 "/>
    <polygon class="fil14" points="4815.61,3053.21 5265.01,3053.21 5265.01,2847.06 4815.61,2847.06 "/>
    <polygon class="fil14" points="4815.61,2098.35 5265.01,2098.35 5265.01,1921.14 4815.61,1921.14 "/>
    <polygon class="fil32" points="4266.48,1888.58 4780.18,1888.58 4780.18,1724.9 4266.48,1724.9 "/>
    <polygon class="fil14" points="4284.18,1872.3 4762.47,1872.3 4762.47,1741.17 4284.18,1741.17 "/>
    <polygon class="fil14" points="4815.61,2337.08 5265.01,2337.08 5265.01,2130.91 4815.61,2130.91 "/>
    <polygon class="fil14" points="4815.61,1888.58 5265.01,1888.58 5265.01,1724.9 4815.61,1724.9 "/>
    <polygon class="fil14" points="4815.61,2575.77 5265.01,2575.77 5265.01,2369.63 4815.61,2369.63 "/>
    <polygon class="fil14" points="4815.61,2814.51 5265.01,2814.51 5265.01,2608.34 4815.61,2608.34 "/>
    <polygon class="fil14" points="2158.54,3053.21 2583.67,3053.21 2583.67,2847.06 2158.54,2847.06 "/>
    <polygon class="fil14" points="4815.61,1692.35 5265.01,1692.35 5265.01,1528.68 4815.61,1528.68 "/>
    <polygon class="fil14" points="4266.48,1692.35 4780.18,1692.35 4780.18,1528.68 4266.48,1528.68 "/>
    <polygon class="fil14" points="2158.54,2098.35 2583.67,2098.35 2583.67,1921.14 2158.54,1921.14 "/>
    <polygon class="fil14" points="2158.54,1496.12 5282.75,1496.12 5282.75,1394.86 2158.54,1394.86 "/>
    <polygon class="fil14" points="2158.54,2814.51 2583.67,2814.51 2583.67,2608.34 2158.54,2608.34 "/>
    <polygon class="fil14" points="2158.54,2575.77 2583.67,2575.77 2583.67,2369.63 2158.54,2369.63 "/>
    <polygon class="fil14" points="2158.54,2337.08 2583.67,2337.08 2583.67,2130.91 2158.54,2130.91 "/>
    <polygon class="fil14" points="2158.54,1692.35 2583.67,1692.35 2583.67,1528.68 2158.54,1528.68 "/>
    <polygon class="fil14" points="2158.54,1888.58 2583.67,1888.58 2583.67,1724.9 2158.54,1724.9 "/>
    <path class="fil33" d="M4812.6 1191.5l-101.18 0c-6.62,0 -11.95,-5.35 -11.95,-11.95 0,-6.6 5.33,-11.95 11.95,-11.95l101.18 0c6.61,0 11.96,5.35 11.96,11.95 0,6.6 -5.35,11.95 -11.96,11.95z"/>
    <path class="fil33" d="M5137 1164.38l-93.74 0 0 -67.44 93.74 0 0 67.44zm-104.78 -78.47l0 89.49 115.81 0 0 -89.49 -115.81 0z"/>
    <path class="fil13" d="M5519.13 3014.37l-454.45 0c-18.35,0 -33.19,-14.88 -33.19,-33.22l0 -454.45c0,-18.34 14.84,-33.18 33.19,-33.18l454.45 0c18.34,0 33.18,14.84 33.18,33.18l0 454.45c0,18.34 -14.84,33.22 -33.18,33.22z"/>
    <path class="fil13" d="M6079.29 3014.37l-454.44 0c-18.35,0 -33.22,-14.88 -33.22,-33.22l0 -454.45c0,-18.34 14.87,-33.18 33.22,-33.18l454.44 0c18.35,0 33.19,14.84 33.19,33.18l0 454.45c0,18.34 -14.84,33.22 -33.19,33.22z"/>
    <path class="fil13" d="M5519.13 3578.28l-454.45 0c-18.35,0 -33.19,-14.87 -33.19,-33.18l0 -454.48c0,-18.31 14.84,-33.18 33.19,-33.18l454.45 0c18.34,0 33.18,14.87 33.18,33.18l0 454.48c0,18.31 -14.84,33.18 -33.18,33.18z"/>
    <path class="fil13" d="M6079.29 3578.28l-454.44 0c-18.35,0 -33.22,-14.87 -33.22,-33.18l0 -454.48c0,-18.31 14.87,-33.18 33.22,-33.18l454.44 0c18.35,0 33.19,14.87 33.19,33.18l0 454.48c0,18.31 -14.84,33.18 -33.19,33.18z"/>
    <path class="fil25" d="M5182.51 2610.2l109.39 109.42 109.42 -109.42c9.47,-9.44 24.79,-9.5 34.3,-0.06l0.02 0c9.57,9.48 9.6,24.93 0.11,34.46l-109.26 109.58 109.03 109.07c9.47,9.46 9.51,24.79 0.11,34.29 -9.48,9.6 -24.96,9.63 -34.5,0.1l-109.22 -109.22 -109.22 109.22c-9.54,9.53 -24.99,9.5 -34.49,-0.1 -9.42,-9.5 -9.39,-24.83 0.1,-34.29l109.06 -109.07 -109.28 -109.58c-9.5,-9.53 -9.44,-24.98 0.13,-34.46l0 0c9.5,-9.44 24.85,-9.38 34.32,0.06z"/>
    <path class="fil25" d="M5316.09 3138.95l0 154.71 154.74 0c13.38,0 24.26,10.81 24.32,24.2l0 0.05c0.06,13.45 -10.85,24.42 -24.29,24.42l-154.77 0.22 0 154.23c0,13.39 -10.82,24.26 -24.2,24.33 -13.47,0.05 -24.44,-10.85 -24.44,-24.33l0 -154.49 -154.46 0c-13.49,0 -24.41,-10.93 -24.32,-24.44 0.06,-13.39 10.94,-24.2 24.32,-24.2l154.23 0 0.2 -154.74c0.03,-13.49 10.95,-24.35 24.44,-24.29l0.03 0c13.38,0.06 24.2,10.93 24.2,24.32z"/>
    <path class="fil25" d="M5893.97 3430.66c0,55.7 -83.45,55.76 -83.45,0 0,-12.33 3.81,-22.31 11.5,-29.84 21.91,-21.62 71.94,-13.39 71.94,29.84zm0 -225.92c0,40.79 -48.03,54.01 -71.94,30.04 -15.45,-15.38 -15.51,-44.66 0,-59.9 22.64,-22.31 71.94,-12.59 71.94,29.85zm-183.19 90.66l282.56 0c13.38,0 24.23,10.84 24.23,24.19 0,13.39 -10.85,24.23 -24.23,24.23l-282.56 0c-13.36,0 -24.2,-10.84 -24.2,-24.23 0,-13.35 10.84,-24.19 24.2,-24.19z"/>
    <path class="fil25" d="M5710.46 2730.05l283.2 0c13.19,0 23.91,10.68 23.91,23.87 0,13.2 -10.72,23.91 -23.91,23.91l-283.2 0c-13.2,0 -23.88,-10.71 -23.88,-23.91 0,-13.19 10.68,-23.87 23.88,-23.87z"/>
    <path class="fil17" d="M5514.42 2308.16l22.29 95.71 -28.2 35.19 -44.92 -20.03c0,0 15.79,-20.21 16.22,-36.01 0.41,-15.81 -14.72,-69.33 -14.72,-69.33l49.33 -5.53z"/>
    <path class="fil17" d="M6028.91 1167.26l41.01 -89.32 43.84 -10.54 23.23 43.32c0,0 -24.85,6.32 -34.86,18.56 -9.99,12.22 -30.81,63.82 -30.81,63.82l-42.41 -25.83z"/>
    <polygon class="fil26" points="5212.62,534.14 5233.29,701.63 5363.55,629.82 5293.46,504.24 "/>
    <path class="fil28" d="M5309.28 532.64l-15.83 -28.4 -80.84 29.89 11.38 92.21c10.47,-2.98 19.94,-7 27.37,-12.09 21.65,-14.86 43.42,-47.02 57.91,-81.61z"/>
    <path class="fil34" d="M5476.49 1222.59l156.31 57.95c0,0 186.18,196.25 241.09,133.93 54.9,-62.31 159.38,-275.76 159.38,-275.76l70.21 44.16c0,0 -58.17,312.55 -137.63,377.06 -210.22,170.66 -602.29,-129 -602.29,-129l112.94 -208.34z"/>
    <path class="fil26" d="M5219.77 327.09c0,0 -4.03,-1.64 -27.14,30.04 -16.44,22.59 -26.39,49.58 -36.65,75.34 -15.29,38.38 -28.07,80.14 -16.53,121.24 6.04,21.6 92.76,27.48 127.66,8.88 34.9,-18.59 67.32,-78.25 65.26,-120.77 -2.07,-42.5 -97.05,-123.02 -112.6,-114.74z"/>
    <path class="fil35" d="M5276.84 533.92c5.34,11.37 14.3,14.5 41.42,15.01 34.87,0.65 69.53,-25.8 78.32,-74.1 26.9,-147.75 -113.1,-183.8 -149.08,-197.93 -13.47,-5.3 -24.06,-0.92 -31.98,6.61 -12.74,12.14 -29.94,18.11 -47.29,15.31 -7.64,-1.22 -27.77,-1.69 -33.23,9.88 -15.64,33.17 -16.08,67.64 42.92,67.64 133.7,0 88.63,135.67 98.92,157.58z"/>
    <path class="fil18" d="M5451.48 1222.59c17.19,0.44 117.04,38.86 129.73,103.33 12.68,64.48 -56.04,1006.33 -56.04,1006.33l-64.41 8.87c0,0 -188.95,-930.4 -157.96,-1002.91 31,-72.52 148.68,-115.62 148.68,-115.62z"/>
    <path class="fil21" d="M5581.21 1325.92c-12.69,-64.47 -112.53,-102.88 -129.73,-103.33 0,0 -117.68,43.09 -148.68,115.62 -2.89,6.76 -3.85,20.99 -3.24,41.23 43.14,-15.83 89.61,-28.94 106.53,-19.84 34.65,18.63 61.89,55.17 127.98,71.34 12.81,3.14 29.17,1.02 47.26,-4.45 1.85,-53.03 2.04,-89.57 -0.12,-100.56z"/>
    <path class="fil1" d="M5541.73 2389.27c0,0 12.55,15.41 17.23,42.47 4.68,27.06 -1.37,53.09 -1.37,53.09 0,0 -131.48,15.64 -183.73,9.24 -52.23,-6.39 -57.42,-15.13 -57.02,-29.84 0.38,-14.72 70.75,-14.69 90.63,-33.54 19.89,-18.88 46.75,-58.39 59.54,-53.05 12.82,5.38 11.82,29.06 28.71,29.47 16.84,0.44 38.02,-26.29 46.03,-17.84z"/>
    <path class="fil1" d="M6056.97 1086.37c0,0 -0.44,-19.84 12.41,-44.09 12.87,-24.26 33.62,-41.15 33.62,-41.15 0,0 113.49,68.16 150.87,105.2 37.42,37.05 36.15,47.12 26.82,58.52 -9.31,11.4 -64.94,-31.73 -92.21,-28.98 -27.28,2.75 -72.7,17.53 -79.54,5.47 -6.83,-12.07 8.42,-30.18 -4.65,-40.86 -13.03,-10.68 -46.16,-2.49 -47.33,-14.11z"/>
    <path class="fil22" d="M5190.63 778.72l-2.48 11.95c-30.2,145.07 18.16,332.86 74.47,469.91 17.78,43.19 17.3,56.69 40.18,77.63l103.29 -56.95 -215.46 -502.54z"/>
    <path class="fil36" d="M5184.19 972.21c0,0 0,-0.01 0,-0.02 0,0.01 0,0.02 0,0.02zm-0.12 -0.97c0,-0.04 0,-0.1 0,-0.14 0,0.04 0,0.1 0,0.14zm-0.13 -1.05c0,-0.03 0,-0.07 0,-0.11 0,0.03 0,0.07 0,0.11zm-0.1 -1c-0.04,-0.05 -0.04,-0.11 -0.04,-0.17 0,0.05 0,0.13 0.04,0.17zm-0.14 -1.01c0,-0.06 -0.02,-0.12 -0.02,-0.19 0,0.07 0.02,0.13 0.02,0.19zm-0.12 -1.02c0,-0.06 0,-0.14 -0.03,-0.19 0.03,0.06 0.03,0.12 0.03,0.19zm-0.14 -1.21c-0.02,-0.13 -0.02,-0.26 -0.05,-0.4 0.03,0.14 0.03,0.26 0.05,0.4zm-0.13 -0.95c0,-0.19 -0.03,-0.4 -0.06,-0.59 0.03,0.19 0.06,0.39 0.06,0.59zm-0.08 -1c-0.03,-0.22 -0.06,-0.44 -0.06,-0.68 0,0.22 0.03,0.46 0.06,0.68zm-0.1 -0.95c-0.03,-0.25 -0.06,-0.5 -0.1,-0.74 0.03,0.24 0.06,0.49 0.1,0.74zm-0.14 -0.97c-0.02,-0.26 -0.02,-0.5 -0.06,-0.76 0.04,0.25 0.04,0.51 0.06,0.76zm-0.1 -0.97c-0.03,-0.25 -0.06,-0.52 -0.08,-0.77 0.02,0.25 0.05,0.52 0.08,0.77zm-0.08 -0.95c-0.03,-0.29 -0.06,-0.56 -0.1,-0.85 0.03,0.29 0.06,0.56 0.1,0.85z"/>
    <path class="fil37" d="M5180.14 928.29l0 0c-2.61,-41.98 -1.38,-82.95 4.95,-121.29 -6.32,38.34 -7.55,79.3 -4.95,121.29z"/>
    <path class="fil36" d="M5182.74 959.25c-1.09,-10.37 -1.98,-20.69 -2.61,-30.96l0 0c0.63,10.28 1.51,20.59 2.61,30.96z"/>
    <path class="fil37" d="M5185.08 806.97c0.06,-0.28 0.11,-0.56 0.17,-0.85 -0.06,0.3 -0.11,0.56 -0.17,0.85zm0.17 -0.86c0.03,-0.29 0.1,-0.56 0.13,-0.86 -0.03,0.3 -0.1,0.57 -0.13,0.86zm0.16 -0.87c0.32,-2 0.67,-3.98 1.05,-5.96 -0.38,1.98 -0.73,3.96 -1.05,5.96zm1.05 -6.04c0.06,-0.23 0.1,-0.46 0.13,-0.7 -0.03,0.23 -0.06,0.48 -0.13,0.7zm0.19 -0.91c0.03,-0.21 0.05,-0.42 0.08,-0.64 -0.03,0.22 -0.05,0.41 -0.08,0.64zm0.16 -0.88c0.02,-0.21 0.06,-0.41 0.13,-0.61 -0.06,0.2 -0.11,0.4 -0.13,0.61zm0.16 -0.91c0.03,-0.19 0.1,-0.38 0.13,-0.57 -0.03,0.19 -0.1,0.39 -0.13,0.57zm0.18 -0.9c0.03,-0.17 0.06,-0.35 0.11,-0.54 -0.04,0.18 -0.07,0.37 -0.11,0.54zm0.17 -0.91c0.03,-0.17 0.1,-0.33 0.13,-0.5 -0.06,0.17 -0.1,0.33 -0.13,0.5zm0.19 -0.89c0.03,-0.17 0.06,-0.33 0.08,-0.5 -0.02,0.17 -0.05,0.32 -0.08,0.5zm0.19 -0.92c0.03,-0.15 0.06,-0.3 0.1,-0.44 -0.03,0.15 -0.06,0.29 -0.1,0.44zm0.19 -0.97c0.03,-0.12 0.06,-0.23 0.06,-0.35 0,0.12 -0.03,0.23 -0.06,0.35z"/>
    <path class="fil24" d="M5197.08 1049.53c-5.37,-25.7 -9.76,-51.59 -12.88,-77.32 0,0 0,-0.01 0,-0.02 -0.03,-0.32 -0.08,-0.64 -0.12,-0.95 0,-0.04 0,-0.1 0,-0.14 -0.06,-0.31 -0.1,-0.6 -0.13,-0.91 0,-0.03 0,-0.07 0,-0.11 -0.04,-0.3 -0.06,-0.59 -0.1,-0.89 -0.04,-0.04 -0.04,-0.12 -0.04,-0.17 -0.03,-0.28 -0.06,-0.55 -0.1,-0.84 0,-0.06 -0.02,-0.12 -0.02,-0.19 -0.03,-0.28 -0.06,-0.55 -0.1,-0.83 0,-0.07 0,-0.13 -0.03,-0.19 -0.03,-0.34 -0.06,-0.68 -0.11,-1.02 -0.02,-0.14 -0.02,-0.26 -0.05,-0.4 0,-0.18 -0.04,-0.36 -0.07,-0.55 0,-0.2 -0.03,-0.4 -0.06,-0.59 0,-0.14 -0.02,-0.28 -0.02,-0.4 -0.03,-0.22 -0.06,-0.46 -0.06,-0.68 -0.03,-0.1 -0.03,-0.18 -0.03,-0.28 -0.03,-0.25 -0.06,-0.5 -0.1,-0.74 0,-0.07 0,-0.16 -0.04,-0.23 -0.02,-0.25 -0.02,-0.51 -0.06,-0.76 -0.03,-0.06 -0.03,-0.14 -0.03,-0.21 -0.03,-0.25 -0.06,-0.52 -0.08,-0.77 0,-0.06 0,-0.13 0,-0.18 -0.03,-0.29 -0.06,-0.56 -0.1,-0.85 0,-0.02 0,-0.03 0,-0.05 -1.09,-10.37 -1.98,-20.69 -2.61,-30.96 -2.61,-41.98 -1.38,-82.95 4.95,-121.29 0,-0.01 0,-0.01 0,-0.03 0.06,-0.29 0.11,-0.55 0.17,-0.85 0,0 0,-0.01 0,-0.01 0.03,-0.29 0.1,-0.56 0.13,-0.86 0.03,0 0.03,0 0.03,-0.01 0.32,-2 0.67,-3.98 1.05,-5.96 0,-0.02 0,-0.05 0,-0.07 0.06,-0.22 0.1,-0.47 0.13,-0.7 0.03,-0.06 0.03,-0.14 0.06,-0.21 0.03,-0.22 0.05,-0.41 0.08,-0.64 0.03,-0.07 0.03,-0.17 0.07,-0.24 0.02,-0.21 0.06,-0.41 0.13,-0.61 0,-0.1 0.03,-0.2 0.03,-0.3 0.03,-0.18 0.1,-0.38 0.13,-0.57 0,-0.11 0.02,-0.21 0.05,-0.33 0.03,-0.17 0.06,-0.36 0.11,-0.54 0.03,-0.12 0.06,-0.25 0.06,-0.37 0.03,-0.17 0.06,-0.33 0.13,-0.5 0,-0.13 0.03,-0.26 0.06,-0.39 0.03,-0.18 0.06,-0.33 0.08,-0.5 0.03,-0.14 0.06,-0.29 0.11,-0.42 0.03,-0.16 0.06,-0.3 0.1,-0.44 0.03,-0.18 0.06,-0.35 0.1,-0.53 0.03,-0.12 0.06,-0.23 0.06,-0.35 0.05,-0.3 0.12,-0.59 0.19,-0.89l2.48 -11.95 89.67 209.12c-28.9,24.57 -58.11,45.36 -83.22,61.7z"/>
    <path class="fil18" d="M5349.97 599.46c0,0 90.15,108.13 136.73,219.96 46.6,111.84 205.32,478.78 205.32,478.78 0,0 -149.28,98.82 -242.5,70.4 -93.23,-28.41 -244.8,-327.36 -285.04,-466.96 -40.24,-139.62 58.61,-241.09 76.36,-250.55 17.73,-9.45 109.12,-51.64 109.12,-51.64z"/>
    <path class="fil21" d="M5164.49 901.65c10.56,36.65 28.8,84.29 51.66,135.12 100.16,-68.91 242.37,-197.57 197.21,-350.85 -16.5,-24.85 -268.29,148.28 -248.87,215.73z"/>
    <path class="fil38" d="M4549.8 538.5c-27.12,0 -49.08,-24.49 -49.08,-54.72 0,-30.21 21.96,-54.7 49.08,-54.7 27.11,0 49.08,24.49 49.08,54.7 0,30.22 -21.97,54.72 -49.08,54.72z"/>
    <path class="fil39" d="M4904.27 535.07l0 -100.21 38.43 0c17.39,0 31.51,14.1 31.51,31.49l0 37.23c0,17.41 -14.11,31.49 -31.51,31.49l-38.43 0z"/>
    <polygon class="fil16" points="4806.53,672.41 4858.97,510.34 4908.78,525.15 4865.56,671.54 "/>
    <path class="fil13" d="M4646.92 600.64c46.28,-32.76 101.62,-50.36 158.33,-50.36l117.37 0 9.12 -34.37c5.53,-20.91 5.53,-42.9 0,-63.82l-9.12 -34.39 -117.37 0c-56.71,0 -112.05,-17.6 -158.33,-50.36l-82.88 -58.65 0 350.58 82.88 -58.65z"/>
    <path class="fil40" d="M4935.87 484c0,-10.71 -1.37,-21.44 -4.13,-31.9 2.76,10.46 4.13,21.19 4.13,31.9z"/>
    <path class="fil41" d="M4564.04 659.29l0 -28.26c30.17,-43.3 77.34,-105.17 105.73,-113.7 44.28,-13.28 195.59,5.17 221.44,-20.67 25.85,-25.83 31.41,-78.94 31.41,-78.94l9.12 34.39 0 0c2.76,10.46 4.13,21.19 4.13,31.9 0,10.56 -1.33,21.12 -4,31.42 -0.06,0.17 -0.1,0.33 -0.13,0.5l-5.08 19.15 -4.04 15.21 -117.37 0c-56.71,0 -112.05,17.61 -158.33,50.36l-82.88 58.65z"/>
    <path class="fil39" d="M4535.56 673.65l0 -377.38c0,-7.86 6.39,-14.23 14.24,-14.23 7.85,0 14.21,6.37 14.21,14.23l0 377.38c0,7.86 -6.36,14.23 -14.21,14.23 -7.85,0 -14.24,-6.37 -14.24,-14.23z"/>
    <path class="fil26" d="M5260.93 460.06c0,0 2.65,-37.37 22.32,-30.98 19.7,6.39 27.24,46.46 9.22,54.92 -18.03,8.46 -31.54,-23.94 -31.54,-23.94z"/>
    <path class="fil26" d="M4961.65 713.47c-9.03,0 -49.49,-70.86 -49.49,-70.86 0,0 -69.42,-61.15 -78.7,-61.15 -9.26,0 -9.76,20.31 -14.69,30.64 -4.93,10.34 -12.24,23.13 -12.24,30.51 0,7.38 -8.17,21.61 0,29.8 8.2,8.19 33.41,38.59 48.67,41.06 15.25,2.45 47.25,31.27 47.25,31.27l59.21 -31.27z"/>
    <path class="fil18" d="M5396.99 778.72c-48.29,80.1 -205.41,223.43 -282.94,231.46 -77.57,8.01 -231.77,-265.43 -231.77,-265.43l53.59 -79.77c0,0 146.74,150.31 184,139.22 37.22,-11.09 113.03,-192.37 217.45,-184.06 104.43,8.32 77.25,129.44 59.66,158.59z"/>
    <path class="fil17" d="M2909.34 792.37c0,0 314.61,25.45 314.61,118.64 0,76.73 -141.62,386.63 -167.81,505.86 -4.86,22.2 24.6,54.74 23.14,58.35 -6.83,17.12 -43.55,-7.26 -43.55,-7.26l-28.25 -85.64c0,0 108.17,-402.13 75.25,-435.07 -32.94,-32.94 -350.62,-100.97 -350.62,-100.97l177.25 -53.92z"/>
    <path class="fil28" d="M3134.96 913.12c-25.87,-77.65 -262.88,-94.26 -262.88,-94.26l-101.35 15.68 -38.65 11.76c0,0 317.69,68.03 350.62,100.97 20.59,20.63 -14.12,186.04 -42.95,306.82 46.66,-135.44 109.82,-297.08 95.19,-340.96z"/>
    <path class="fil26" d="M2620.95 848.98c0,0 -9.5,43.48 16.82,69.8 26.35,26.34 319.5,12.36 333.93,51.52 25.63,69.54 -41.87,410.71 -41.87,410.71l29.15 85.09c0,0 39.77,26.85 43.49,16.79 1.78,-4.8 -27.95,-42.88 -24.48,-73.32 12.98,-113.52 162.38,-437.58 140.66,-502.64 -25.87,-77.66 -262.88,-94.27 -262.88,-94.27l-234.83 36.33z"/>
    <path class="fil34" d="M2620.95 863.43c0,0 -9.28,43.5 8.14,60.88 17.39,17.41 342.62,45.99 342.62,45.99 0,0 -10.84,-53.43 52.51,-77.05 63.39,-23.61 128.94,-31.53 178.81,-21.36 0,0 -9.79,-31.75 -104.23,-59.24 -94.44,-27.51 -198.4,-28.76 -198.4,-28.76l-279.45 79.54z"/>
    <path class="fil1" d="M3009.38 1381c0,0 -6.74,-4.38 -16.12,9.69 -9.41,14.07 -5.33,93.32 -5.33,93.32l14.84 3.31c0,0 0.44,-58.15 3.88,-57.49 3.46,0.65 9.28,60.99 17.26,64.9 7.98,3.88 62.57,17.92 72.8,10.96 10.23,-6.99 -17.43,-30.47 -17.43,-30.47 0,0 -28.44,-1.54 -31.4,-5.86 -2.96,-4.32 -38.5,-88.36 -38.5,-88.36z"/>
    <path class="fil1" d="M2725.61 28.68c9.92,2.08 99.46,3.08 99.46,68.2 0,65.12 -1.3,91.01 15.51,119.48 16.85,28.48 -11.19,97.57 -32.17,97.8 -21.01,0.23 -22.72,75.65 -22.72,75.65 0,0 -121.15,54.36 -154.78,40.12 -8.42,-3.56 -17.96,-4.21 -27.55,-3.18 -59.46,6.41 -101.16,-60.73 -63.1,-106.87 1.61,-1.94 3.35,-3.85 5.21,-5.72 51.48,-51.48 45.3,-47.32 45.3,-105.56 0,-58.25 10.36,-41.43 34.96,-76.38 24.61,-34.94 39.07,-116.31 99.89,-103.54z"/>
    <path class="fil22" d="M2834.41 487.88c0,0 56.55,154.03 122.74,176.89 66.18,22.86 96.25,95.07 96.25,95.07l-39.16 34.46 -128.52 -57.33 -51.3 -249.09z"/>
    <path class="fil42" d="M2920.43 639.14c-10.36,-10.7 -20.21,-23.64 -29.25,-37.38l0 -0.01c9.04,13.74 18.89,26.67 29.25,37.37 0,0.02 0,0.02 0,0.02z"/>
    <path class="fil43" d="M2921.07 732.88c-12.33,-34.77 -26.36,-81.23 -29.88,-131.13 9.04,13.74 18.89,26.69 29.25,37.38 3.72,13.63 7.75,28.88 11.66,44.42l-11.03 49.32z"/>
    <path class="fil22" d="M2800.65 315.02c18.11,18.13 126.65,114.44 104.75,173.91 -48.65,132.07 36.07,282.3 36.07,303.01 0,20.71 -258.59,90.6 -315.52,90.6 -56.97,0 68.47,-181.9 45.16,-244.02 -23.26,-62.14 -54.23,-311.26 -34.83,-330.68 12.96,-12.95 160.75,3.56 164.37,7.18z"/>
    <path class="fil44" d="M2626.13 882.54l0.03 0 -0.03 0zm0.19 0c0.03,0 0.03,0 0.07,0 -0.04,0 -0.04,0 -0.07,0zm0.22 0l0 0 0 0z"/>
    <path class="fil45" d="M2671.05 638.3c0,-0.03 0,-0.04 -0.03,-0.07 0.03,0.02 0.03,0.05 0.03,0.07zm-0.06 -0.21c-0.03,-0.02 -0.03,-0.05 -0.03,-0.08 0,0.03 0,0.06 0.03,0.08zm-0.08 -0.22c0,-0.03 -0.04,-0.05 -0.04,-0.07 0,0.02 0.04,0.04 0.04,0.07zm-0.2 -0.5c0,-0.03 0,-0.04 -0.03,-0.07 0.03,0.03 0.03,0.04 0.03,0.07zm-0.06 -0.24c-0.03,-0.01 -0.03,-0.03 -0.03,-0.04 0,0.01 0,0.03 0.03,0.04zm-0.1 -0.24c0,-0.01 0,-0.01 0,-0.02 0,0.01 0,0.01 0,0.02zm-0.19 -0.5c0,0 0,-0.01 0,-0.02 0,0.01 0,0.02 0,0.02zm-0.06 -0.23c-0.03,-0.01 -0.03,-0.01 -0.03,-0.02 0,0.01 0,0.01 0.03,0.02zm-0.28 -0.74c0,-0.01 0,-0.02 0,-0.03 0,0.01 0,0.02 0,0.03zm-0.07 -0.26l0 0 0 0zm-0.7 -2.07l0 -0.01 0 0.01zm-0.29 -0.81l0 0z"/>
    <path class="fil46" d="M2625.95 882.54c-10.75,0 -15.01,-6.46 -15.01,-17.36 0.03,-41.92 63.06,-149.49 63.1,-207.95 0.03,-7.01 -0.89,-13.32 -2.92,-18.71l0 0c0,-0.07 -0.03,-0.15 -0.06,-0.21 0,-0.02 0,-0.05 -0.03,-0.07 0,-0.04 -0.03,-0.1 -0.03,-0.14 -0.03,-0.02 -0.03,-0.05 -0.03,-0.08 -0.02,-0.04 -0.02,-0.08 -0.05,-0.14 0,-0.03 -0.04,-0.05 -0.04,-0.07 -0.03,-0.14 -0.1,-0.29 -0.16,-0.42 0,-0.03 0,-0.04 -0.03,-0.07 0,-0.05 -0.03,-0.11 -0.03,-0.17 -0.03,-0.01 -0.03,-0.03 -0.03,-0.04 -0.03,-0.06 -0.03,-0.14 -0.06,-0.2 0,-0.01 0,-0.01 0,-0.02 -0.06,-0.15 -0.13,-0.32 -0.19,-0.48 0,0 0,-0.01 0,-0.02 -0.03,-0.06 -0.06,-0.14 -0.06,-0.21 -0.03,-0.01 -0.03,-0.01 -0.03,-0.02 -0.06,-0.24 -0.16,-0.49 -0.24,-0.72 0,-0.01 0,-0.02 0,-0.03 -0.04,-0.07 -0.07,-0.15 -0.07,-0.23l0 0c-0.25,-0.68 -0.48,-1.37 -0.7,-2.07l0 -0.01c-0.1,-0.25 -0.19,-0.52 -0.29,-0.79l0 0c-14.14,-43.7 -30.39,-149.5 -36.4,-228.74 33.89,69.99 79.66,170.84 88.18,220.92 13.8,81.22 -69.04,255.61 -69.04,255.66l-0.1 0.01 -9.13 1.22c-6.25,0.73 -11.63,1.14 -15.92,1.19l0 0c-0.06,0 -0.1,0 -0.15,0 -0.04,0 -0.04,0 -0.07,0 -0.06,0 -0.1,0 -0.16,0l-0.03 0c-0.06,0 -0.13,0 -0.18,0l0 0z"/>
    <path class="fil26" d="M2757.74 197.36l9.93 117.84c0,0 66.62,140.49 34.77,152.14 -31.88,11.65 -104.71,-146.75 -104.71,-146.75l0 -150.83 60.01 27.6z"/>
    <path class="fil28" d="M2697.73 169.76l0 76.32c19.8,30.03 47.84,51.05 68.47,51.58l-8.45 -100.3 -60.01 -27.6z"/>
    <path class="fil26" d="M2757.74 61.03c0,0 34.97,-15.53 46.6,54.37 11.67,69.91 1.85,144.21 -32.68,149.39 -34.51,5.18 -98.03,-50.33 -98.03,-107.97 0,-49.54 56.48,-103.16 84.11,-95.79z"/>
    <path class="fil1" d="M2929.84 1381c0,0 -6.74,-4.38 -16.11,9.69 -9.42,14.07 -5.34,93.32 -5.34,93.32l14.84 3.31c0,0 0.44,-58.15 3.91,-57.49 3.43,0.65 9.25,60.99 17.24,64.9 7.98,3.88 62.55,17.92 72.79,10.96 10.24,-6.99 -17.42,-30.47 -17.42,-30.47 0,0 -28.45,-1.54 -31.41,-5.86 -2.96,-4.32 -38.5,-88.36 -38.5,-88.36z"/>
    <path class="fil47" d="M2948.4 849.19c-18.4,0 -68.24,-11.74 -98.13,-17.48 9.77,-3.04 19.08,-6.06 27.82,-9.02l32.64 5.92 16.12 0.36c1.11,0.16 2.22,0.25 3.37,0.28l26.61 0.39 0.16 0 0 0 193.43 2.85c-76.17,6.93 -186.28,16.7 -202.02,16.7z"/>
    <path class="fil43" d="M2850.27 831.71c-9.66,-1.86 -17.23,-3.09 -20.98,-3.09 -11.57,0 -35.86,-7.42 -47.11,-11.07l26.25 -7.47 69.65 12.62c-8.74,2.96 -18.05,5.97 -27.82,9.02z"/>
    <polygon class="fil13" points="2800.72,808.67 2800.72,788.72 2909.49,818.58 2957.15,818.58 2956.99,829.64 2910.73,828.61 "/>
    <polygon class="fil48" points="2800.72,788.72 3076.86,795.93 3266.82,828.61 2909.49,818.58 "/>
    <path class="fil26" d="M2849.13 759.84c0,0 40.56,14.2 61.6,8.13 21.08,-6.08 35.74,-9.03 56.56,5.41 20.85,14.44 27.74,29.69 27.74,29.69 0,0 12.75,14.02 0,15.78 -12.74,1.77 -100.57,-0.87 -103.02,-3.31 -2.45,-2.44 -72.18,-15.55 -72.18,-15.55l29.3 -40.16z"/>
    <path class="fil49" d="M2579.25 720.53c52.32,73.87 212.76,105.24 276.53,92.12 0,0 1.8,-20.8 29.78,-48.75 6.48,-6.47 -191.68,-83.42 -214.41,-96.55 -22.75,-13.13 -30.74,-352.8 -30.74,-352.8 0,0 -34.26,14.42 -50.13,64.54 -31.94,100.78 -52.44,282.92 -11.03,341.44z"/>
    <path class="fil1" d="M2575.02 424.49c-14.27,-4.21 -27.03,-13.44 -35.9,-25.34 -18.49,-24.8 -18.6,-59.69 6.35,-84.65 51.48,-51.48 45.3,-47.32 45.3,-105.56 0,-58.24 -5.86,-71.96 18.75,-106.91 24.61,-34.95 55.28,-85.77 116.09,-73.01 0.79,0.16 2.06,0.32 3.78,0.5 1.13,0.3 66.24,0.56 54.36,37.4 0,0 -15.76,-7.79 -26.64,9.35 -20.24,31.93 -20.72,42.07 -44.03,52.42 -23.3,10.35 -14.27,50.48 -14.27,77.01 0,20.33 -2.89,40.59 -2.35,60.93 0.64,23.16 44.85,184.24 -85.51,160.43 -11.98,-2.18 -23.97,0.96 -35.92,-2.56z"/>
    <path class="fil13" d="M2979.56 470.94l-73.23 328.03c-3.43,15.4 8.14,30.05 23.9,30.29l344.68 5.07c11.15,0.17 21.08,-7.15 24.23,-17.88l97.4 -333.11c4.66,-15.92 -7.29,-31.84 -23.85,-31.84l-368.83 0c-11.66,0 -21.75,8.07 -24.29,19.45z"/>
    <polygon class="fil50" points="3157.73,832.6 3152.87,832.52 3152.87,832.52 3157.73,832.6 "/>
    <polygon class="fil51" points="3152.87,832.52 3150.42,832.49 3150.42,832.49 3152.87,832.52 "/>
    <path class="fil52" d="M3150.42 832.49l-193.43 -2.85 193.43 2.85 0 0zm-193.59 -2.85l-26.61 -0.39c-1.14,-0.02 -2.26,-0.12 -3.37,-0.28l0 0c1.11,0.16 2.22,0.25 3.37,0.28l26.61 0.39 0 0z"/>
    <polygon class="fil53" points="2956.99,829.64 2956.83,829.64 2956.83,829.64 "/>
    <polygon class="fil50" points="2938.48,654.89 2938.48,654.89 2973.9,496.34 2973.9,496.34 "/>
    <polygon class="fil54" points="2932.1,683.56 2932.1,683.56 2938.48,654.89 2938.48,654.89 "/>
    <polygon class="fil55" points="2921.07,732.89 2921.07,732.88 2932.1,683.56 2932.1,683.56 "/>
    <polygon class="fil54" points="2913.41,767.2 2921.07,732.88 2921.07,732.89 2913.41,767.2 "/>
    <polygon class="fil56" points="2906.32,798.96 2913.41,767.2 2913.41,767.2 "/>
    <path class="fil53" d="M3157.73 832.6l-4.86 -0.07 -2.45 -0.03 -193.43 -2.85 -0.16 0 -26.61 -0.39c-1.14,-0.02 -2.26,-0.12 -3.37,-0.28 -12.17,-1.82 -21.1,-12.36 -21.13,-24.47 0,-1.82 0.19,-3.67 0.6,-5.54l0 0 7.09 -31.76 7.66 -34.31 11.03 -49.33 6.39 -28.67 35.41 -158.55c107.28,12.89 274.31,42.46 274.31,101.63 0,60.81 -56.37,172.57 -90.48,234.63z"/>
    <path class="fil57" d="M3099.97 3257.22c-14.14,21.74 16.79,60.12 42.72,60.12 11.06,0 21.36,-5.59 27.36,-14.85l395.62 -606.22c14.33,-22 -10.93,-64.12 -37.19,-64.12l-428.51 625.08z"/>
    <path class="fil57" d="M3465.95 3269.88c-43.84,0 -57.57,-37.64 -57.57,-81.82 0,-90.89 71.91,-98.33 100.13,-61.83 26.71,34.49 23.81,143.66 -42.56,143.66zm-127.49 -79.93c0,57.48 19.42,110.15 73.52,131.33 46.16,18.05 108.68,11.31 146.52,-32.36 39.25,-45.36 42.82,-114.98 26.63,-163.17 -41.93,-124.52 -246.67,-105.91 -246.67,64.21z"/>
    <path class="fil13" d="M3497.04 2646.92l-394.97 606.62c-14.17,21.75 1.43,50.55 27.41,50.55 11.03,0 21.32,-5.57 27.36,-14.82l395.57 -606.24c14.34,-22 -1.43,-51.15 -27.68,-51.15 -11.19,0 -21.62,5.66 -27.69,15.03z"/>
    <path class="fil13" d="M3450.18 3250.33c-43.84,0 -57.54,-37.64 -57.54,-81.82 0,-90.88 71.88,-98.35 100.14,-61.82 26.66,34.48 23.78,143.65 -42.6,143.65zm-127.47 -79.92c0,57.48 19.42,110.15 73.5,131.29 46.16,18.09 108.68,11.36 146.52,-32.32 39.25,-45.36 42.84,-115.01 26.62,-163.17 -41.93,-124.52 -246.64,-105.92 -246.64,64.21z"/>
    <path class="fil57" d="M3194.48 2830.02c-43.84,0 -57.57,-37.64 -57.57,-81.82 0,-90.88 71.91,-98.35 100.13,-61.82 26.71,34.49 23.8,143.65 -42.56,143.65zm-127.5 -79.91c0,57.47 19.43,110.14 73.5,131.27 46.19,18.09 108.71,11.36 146.54,-32.32 39.23,-45.36 42.82,-115.01 26.64,-163.17 -41.93,-124.52 -246.68,-105.91 -246.68,64.22z"/>
    <path class="fil13" d="M3178.71 2810.47c-43.84,0 -57.57,-37.64 -57.57,-81.82 0,-90.88 71.91,-98.35 100.16,-61.86 26.66,34.48 23.77,143.68 -42.6,143.68zm-127.47 -79.91c0,57.43 19.43,110.13 73.49,131.27 46.16,18.06 108.69,11.35 146.52,-32.35 39.26,-45.34 42.85,-114.98 26.64,-163.17 -41.93,-124.52 -246.65,-105.92 -246.65,64.25z"/>
    <path class="fil58" d="M3026.47 3715.74c0,44.57 -36.15,80.7 -80.71,80.7 -44.57,0 -80.7,-36.13 -80.7,-80.7 0,-44.57 36.13,-80.71 80.7,-80.71 44.57,0 80.71,36.15 80.71,80.71z"/>
    <path class="fil58" d="M3695.14 3715.74c0,44.57 -36.1,80.7 -80.7,80.7 -44.57,0 -80.71,-36.13 -80.71,-80.7 0,-44.57 36.15,-80.71 80.71,-80.71 44.6,0 80.7,36.15 80.7,80.71z"/>
    <path class="fil1" d="M2906.16 3714.12l-6.53 1.18c-16.37,2.85 -31.94,-8.07 -34.8,-24.45l-15.81 -90.12 67.78 -0.1 13.79 78.68c2.86,16.38 -8.07,31.94 -24.44,34.81z"/>
    <path class="fil1" d="M3574.86 3714.12l-6.55 1.18c-16.35,2.85 -31.95,-8.07 -34.81,-24.45l-15.79 -90.12 67.77 -0.1 13.79 78.68c2.87,16.38 -8.07,31.94 -24.41,34.81z"/>
    <path class="fil1" d="M3595.99 3605.88l-772.54 0c-5.69,0 -10.31,-4.61 -10.31,-10.3 0,-5.69 4.62,-10.3 10.31,-10.3l772.54 0c57,0 85.96,-69.43 45.52,-109.87 -43.95,-43.96 -102.29,-71.02 -164.24,-76.17l-209.17 -17.45c-5.69,-0.48 -9.89,-5.43 -9.42,-11.09 0.48,-5.7 5.89,-9.41 11.61,-8.93l208.69 16.94c66.81,5.56 129.7,34.75 177.09,82.14 16.05,16.05 24.88,37.38 24.88,60.08 0,46.83 -38.1,84.94 -84.97,84.94z"/>
    <path class="fil1" d="M3614.02 3381.83c-5.7,0 -10.3,-4.61 -10.3,-10.3l0 -473.42c0,-90.85 71.04,-166.13 161.76,-171.34l146.65 -8.42c5.75,-0.38 10.55,4 10.87,9.69 0.34,5.66 -4.01,10.52 -9.66,10.87l-146.65 8.43c-79.85,4.58 -142.38,70.82 -142.38,150.77l0 473.42c0,5.69 -4.61,10.3 -10.3,10.3z"/>
    <path class="fil1" d="M2990.02 3281.32l86.59 0 12.13 79.92 -84.17 0 -14.56 -79.92zm38.8 -314.07l13.55 89.07 -93.36 0 -16.22 -89.07 96.03 0zm181.27 314.07l9.15 79.92 -111.45 0 -12.14 -79.92 114.44 0zm-128.77 -94.09l117.96 0 9.13 79.49 -114.98 0 -12.11 -79.49zm-21.24 -14.59l-89.86 0 -18.53 -101.73 92.92 0 15.48 101.73zm125.85 -101.73l11.66 101.73 -118.47 0 -15.49 -101.73 122.29 0zm-11.9 -103.66l10.21 89.07 -122.83 0 -13.54 -89.07 126.16 0zm215.82 314.07l0 79.92 -154.15 0 -9.18 -79.92 163.33 0zm0 -94.09l0 79.49 -164.98 0 -9.12 -79.49 174.1 0zm0 -116.32l0 101.73 -175.79 0 -11.66 -101.73 187.45 0zm0 -14.59l-189.14 0 -10.23 -89.07 199.37 0 0 89.07zm130.08 225l0 79.92 -118.95 0 0 -79.92 118.95 0zm0 -94.09l0 79.49 -118.95 0 0 -79.49 118.95 0zm0 -116.32l0 101.73 -118.95 0 0 -101.73 118.95 0zm0 -14.59l-118.95 0 0 -89.07 118.95 0 0 89.07zm14.59 116.32l0 -101.73 69.21 0 0 101.73 -69.21 0zm69.21 108.68l0 79.92 -69.21 0 0 -79.92 69.21 0zm-69.21 -14.6l0 -79.49 69.21 0 0 79.49 -69.21 0zm69.21 -210.4l-69.21 0 0 -89.07 69.21 0 0 89.07zm-630.84 130.9l89.39 0 12.11 79.49 -87.04 0 -14.46 -79.49zm653.31 -238.44l-1.88 -2.14 -699.34 0c-8.77,0 -15.41,7.95 -13.87,16.59l74.67 409.82c0.93,5.08 5.37,8.77 10.52,8.77l628.02 0 1.88 -2.1 0 -430.94z"/>
    <path class="fil17" d="M4267.93 3681.47l-21.48 59.66 -50.45 -27.2c0,0 2.54,-8.62 7.72,-12.15 5.18,-3.56 19.78,-80.01 19.78,-80.01l44.43 59.71z"/>
    <path class="fil59" d="M4728.8 3615.44l48.14 -36.72c0,0 -140.67,-310.41 -140.67,-384.04 0,-73.65 40.56,-459.18 -8.36,-508.13 -48.93,-48.92 -47.87,-103.09 -47.87,-103.09l-177.74 88.37c0,0 19.43,416.07 70.96,570.69 51.56,154.64 255.55,372.9 255.55,372.9z"/>
    <path class="fil48" d="M4627.91 2686.56c-37.58,-37.58 -45.65,-78.2 -47.4,-95.05 -1.78,-2.1 -3.5,-4 -5.05,-5.75l-173.16 86.08c0,0 13.84,296.21 49.12,481.66 69.97,-115.81 209,-232.05 198.73,-372.84 -2.96,-46.39 -9.6,-81.44 -22.25,-94.1z"/>
    <path class="fil57" d="M4440.61 2682.87c0,0 -254.54,397.67 -269.28,474.98 -14.72,77.34 35.69,500.31 35.69,500.31l70.57 23.31c0,0 43.77,-432.48 96.26,-484.93 52.44,-52.48 241.46,-300.88 262.4,-347.95 34.37,-77.25 -26.77,-220.93 -26.77,-220.93l-168.88 55.21z"/>
    <path class="fil48" d="M4609.5 2627.66l-168.88 55.21c0,0 -30.87,48.22 -71.72,114.35 5.4,3.97 10.96,7.34 16.72,10.07 66.79,31.75 194.42,-40.88 242.3,-91.26 2.73,-2.86 4.74,-7.56 6.13,-13.79 -10.81,-42.25 -24.55,-74.58 -24.55,-74.58z"/>
    <path class="fil26" d="M4242.16 1953.23c0,0 -43.99,5.6 -54.55,24.16 -10.52,18.59 -13.6,146.26 11.79,158.01 25.4,11.8 94.19,-31.59 98.51,-84.26 4.36,-52.68 -55.75,-97.92 -55.75,-97.92z"/>
    <path class="fil28" d="M4187.61 1977.4c10.55,-18.56 54.55,-24.16 54.55,-24.16 0,0 28.23,21.27 44.6,51.59 -6.2,4.52 -11.06,6.59 -13.35,4.26 -8.18,-8.14 -64.5,-4.38 -90.98,-9.72 1.33,-10.39 3.11,-18.31 5.18,-21.96z"/>
    <polygon class="fil26" points="4398.3,2137.36 4297.91,2051.15 4233.48,2109.38 4287.4,2191.21 "/>
    <path class="fil28" d="M4233.48 2109.38l64.43 -58.23 15.07 12.93 -3.08 1.53c-6.53,3.24 -9.76,10.68 -7.63,17.64 7.18,23.62 17.77,76.26 -21.81,97.41l-46.98 -71.27z"/>
    <path class="fil1" d="M4216.12 2086.47c13.33,13.32 57.86,-51.06 57.86,-73.97 0,-22.92 -69.37,-18.53 -94.16,-30.33 -24.77,-11.76 -40.63,-59.93 0,-77.24 40.65,-17.36 63.57,1.83 63.57,1.83 0,0 38.43,-11.15 72.51,1.25 34.07,12.39 37.8,39.03 37.8,39.03 0,0 20.43,0.65 25.39,38.43 4.96,37.8 -28.25,111.14 -28.25,111.14l-52.7 -40.5 -1 0.6c-8.8,5.31 -12.3,16.3 -8.17,25.71 4.46,10.2 9.16,23.4 9.16,33.79 0,12.15 -11.45,38.21 -36.15,54.48 -28.99,19.11 -68.6,5.57 -80.9,-26.92 -6.74,-17.84 -11.93,-36.53 -7.73,-44.28 9.04,-16.76 29.44,-26.35 42.76,-13.03z"/>
    <path class="fil26" d="M4273.41 2009.08c0,0 19.8,-17.07 33.32,-3.55 13.51,13.51 11.41,26.35 -3.15,36.52 -14.57,10.21 -36.3,-7.01 -36.3,-7.01l6.13 -25.95z"/>
    <path class="fil60" d="M4337.05 2134.27c0,0 -92.07,162 -92.07,272.45 0,110.47 44.5,323.17 140.63,366.56 66.79,30.16 194.42,-38.85 242.3,-86.72 47.87,-47.84 -117.84,-622.25 -290.86,-552.29z"/>
    <path class="fil61" d="M4310.47 2691.39c40.05,-12.36 78.1,-42.09 97.17,-105.63 50.57,-168.57 -0.1,-431.18 -0.1,-431.18l-14.34 -21.48 -142.06 355.74c9.16,67.23 28.68,144.41 59.32,202.55z"/>
    <path class="fil17" d="M4775.53 3574.78l36.11 36.53 -33.22 37.42c0,0 -9.94,-12.9 -12.43,-18.66 -2.45,-5.78 -32.64,-27.69 -32.64,-27.69l42.17 -27.6z"/>
    <path class="fil1" d="M4865.21 3624.64c0,0 -4.21,-14.59 -20.7,-21.24 -16.5,-6.61 -37.38,-10.69 -40.28,-9.44 -2.89,1.24 -12.24,30.52 -22.35,34.87 -10.11,4.32 -33.97,-1.92 -33.97,-1.92 0,0 -8.75,14.69 -3.25,45.15 5.5,30.46 -22.02,81.18 -26.66,92.76 -4.64,11.54 12.52,21.29 12.52,21.29 0,0 60.09,-6.54 134.7,-161.48z"/>
    <polygon class="fil18" points="4791.14,3577.68 4727.62,3617.84 4708.59,3606.83 4775.73,3557.62 "/>
    <path class="fil1" d="M4236.69 3794.28c0,0 13.49,-6.98 16.72,-24.47 3.27,-17.49 3.16,-38.75 1.38,-41.36 -1.79,-2.57 -32.33,-5.97 -38.57,-15.07 -6.23,-9.06 -4.83,-33.66 -4.83,-33.66 0,0 -16.11,-5.69 -44.92,5.69 -28.76,11.38 -83.92,-5.66 -96.16,-7.91 -12.24,-2.29 -18.43,16.46 -18.43,16.46 0,0 18.24,57.64 184.81,100.32z"/>
    <polygon class="fil18" points="4278.81,3701.78 4196,3664.2 4198.83,3633.19 4295.06,3674.8 "/>
    <path class="fil26" d="M3945.87 2684.91c-6.21,6.21 -77.92,6.48 -94.99,6.48 -17.1,0 -48.48,28.74 -44.22,33 4.29,4.29 43.71,-2.51 43.71,-2.51 0,0 20.51,13.51 1.02,20.6 -19.51,7.04 6.67,10.39 17.08,10.39 10.42,0 89.25,-18.54 89.25,-18.54l-11.84 -49.43z"/>
    <path class="fil60" d="M4407.55 2154.58c0,0 4.96,335.02 -50.27,428.89 -55.25,93.9 -399.58,158.52 -399.58,158.52l-34.67 -77.87c0,0 272.23,-84.34 290.64,-134.02 18.4,-49.73 54.55,-294.71 73.72,-338.9 22.53,-51.95 107.24,-104.74 120.15,-36.62z"/>
    <path class="fil17" d="M2216.9 2059.89c0,0 75.49,219.08 121.85,224.01 46.36,4.96 204.57,-71.64 204.57,-71.64l12.55 48.38c0,0 -168.75,121.17 -235.26,98.86 -66.52,-22.29 -131.62,-88.89 -131.62,-88.89l27.91 -210.72z"/>
    <path class="fil1" d="M2146.7 1742.06l3.81 0.74 61.12 11.35c0,0 -3.41,13.22 9.66,26.32 13.07,13.06 83.68,261.84 44.64,300.87 -39.04,39.04 -196.49,24.7 -201.16,24.7 -4.67,0 -29.51,-180.81 -29.51,-180.81l111.43 -183.17z"/>
    <path class="fil17" d="M2225.92 2939.88c0,0 -43.39,451.46 -21.55,507.44 21.85,56.01 57.53,152.23 57.53,152.23l-40.14 0 -82.03 -108.98c0,0 1.96,-5.01 -4.86,-26.85 -6.83,-21.87 -56,-256.76 -38.24,-367.37 5.04,-31.39 11.28,-182.59 26.73,-208.18 38.99,-64.66 102.56,19.07 102.56,51.72z"/>
    <path class="fil1" d="M2136.62 3469.63c0,0 -10.12,-4.16 -19.12,17 -8.99,21.21 16.42,126.11 16.42,126.11l20.69 0.68c0,0 -14.07,-77.82 -9.3,-77.82 4.77,0 27.8,79.19 39.44,82.35 11.64,3.19 88.16,8.21 100.07,-3.69 11.92,-11.92 -30.95,-36.33 -30.95,-36.33 0,0 -38.44,5.12 -43.48,0.1 -5.03,-5.03 -73.76,-108.4 -73.76,-108.4z"/>
    <path class="fil26" d="M2109.81 2939.88c0,0 -43.39,451.46 -21.55,507.44 21.85,56.01 57.53,152.23 57.53,152.23l-40.14 0 -82.03 -108.98c0,0 1.96,-5.01 -4.86,-26.85 -6.82,-21.87 -56,-256.76 -38.24,-367.37 5.04,-31.39 11.28,-182.59 26.73,-208.18 38.99,-64.66 102.56,19.07 102.56,51.72z"/>
    <path class="fil28" d="M1990.26 2987.18c21.6,-3.81 66.55,-11.71 117.03,-20.22 -2.02,22.35 -5.07,56.84 -8.35,97.41 -23.89,3.56 -77.3,10.04 -115.41,3.37 1.88,-21.88 4.01,-51.53 6.73,-80.55z"/>
    <path class="fil28" d="M2109.13 2959.95c41.42,-6.86 83.27,-13.52 116.62,-18.32 -0.9,9.6 -5.4,57.47 -10.52,120.37 -11.43,3.25 -25.91,6.53 -43.85,9.13 -28.85,4.2 -54.01,1.97 -71.92,-1.27 2.49,-28.87 5.5,-72.35 9.66,-109.92z"/>
    <path class="fil60" d="M1950.48 3033.82c0,-93.04 0,-229.64 0,-269.75 0,-71.02 27.31,-257.71 71.02,-350.56 43.7,-92.88 223.98,0 223.98,0 0,0 41.16,90.31 52.08,221.4l10.48 406.42c-129.9,20.18 -231.51,21.77 -357.55,-7.51z"/>
    <path class="fil61" d="M2298.15 2657.95l-0.59 -23.04c-1.92,-22.98 -4.77,-44.73 -8.16,-64.95l-200.78 -50.26c0,0 97.37,93.33 209.53,138.25z"/>
    <path class="fil18" d="M2201.41 2028.35c6.19,6.2 90.7,91.2 83.93,159.7 -10.14,102.4 -38.49,206.13 -28.68,247 16.39,68.32 -229.59,78.55 -241.08,-7.75 -4.08,-30.71 3.9,-107.48 -3.34,-176.95 -11.47,-110.37 -37.71,-219 -32.85,-221.99 107.68,-66.02 205.04,-16.97 222.01,0z"/>
    <path class="fil57" d="M2256.73 2367.22c-34.48,-1.49 -91.59,-8.88 -98.96,-16.24 -10.21,-10.21 -36.01,-94.01 -36.01,-94.01l18.61 -8.58c0,0 -42.05,-153.44 -86.46,-197.88 -26.34,-26.32 -42.6,-33.51 -51.48,-35 -4.29,2.16 -8.58,4.45 -12.9,6.9 -0.46,10.77 -1.58,35.38 -3.13,58.26 5.66,31.47 13.45,74.26 19.82,120.26 16.17,37.54 34.88,76.36 38.95,82.97 7.74,12.62 69.86,109.42 69.86,109.42l140.52 34.35c-1.26,-15 -4.06,-33.79 1.18,-60.46z"/>
    <polygon class="fil16" points="2137.07,2522.45 2170.85,2451.08 2482.08,2283.58 2417.17,1954.47 2451.69,1881.55 2791.72,2042.56 2754.37,2121.43 2532.06,2016.15 2593.52,2331.04 2287.32,2495.07 2535.8,2612.75 2497.71,2693.2 "/>
    <polygon class="fil35" points="2451.37,2688.47 2497.71,2693.2 2137.07,2522.45 2170.85,2451.08 2482.08,2283.58 2417.17,1954.47 2451.69,1881.55 2412.15,1877.52 2379.67,1944.97 2434.7,2273.51 2124.66,2436.76 2088.62,2519.7 "/>
    <polygon class="fil57" points="2715.46,2126.96 2754.37,2121.43 2532.06,2016.15 2537.84,2045.81 "/>
    <path class="fil62" d="M2001.76 2170.54c-5.9,-2 -11.7,-4.67 -17.36,-8.07 -22.9,-13.63 -35.04,-38.69 -41.48,-61.41 18.25,-71.72 35.52,-72.7 36.45,-72.7 0.02,0 0.03,0 0.03,0 -2.04,1.27 1.43,21.3 6.99,52.32l0 0c4.4,24.42 10.06,55.63 15.37,89.86z"/>
    <path class="fil63" d="M1986.39 2080.67c-5.56,-31.02 -9.04,-51.05 -6.99,-52.32l0 0c0,0 3.19,15.65 7.84,39.13 -0.26,4.39 -0.55,8.8 -0.85,13.19z"/>
    <path class="fil64" d="M2007.33 2172.29c-1.86,-0.51 -3.73,-1.1 -5.57,-1.75 -5.31,-34.24 -10.97,-65.45 -15.37,-89.86l0 0c0.3,-4.39 0.58,-8.8 0.85,-13.19 5.56,28.13 13.25,67.51 20.1,104.8z"/>
    <path class="fil1" d="M2020.5 3469.63c0,0 -10.12,-4.16 -19.12,17 -8.99,21.21 16.42,126.11 16.42,126.11l20.69 0.68c0,0 -14.07,-77.82 -9.3,-77.82 4.77,0 27.8,79.19 39.44,82.35 11.64,3.19 88.16,8.21 100.08,-3.69 11.91,-11.92 -30.96,-36.33 -30.96,-36.33 0,0 -38.44,5.12 -43.48,0.1 -5.02,-5.03 -73.76,-108.4 -73.76,-108.4z"/>
    <path class="fil26" d="M2183.21 1881.4l9.36 111.22c0,0 37.46,132.05 7.38,143.05 -30.09,10.96 -73.42,-137.97 -73.42,-137.97l0 -142.37 56.68 26.06z"/>
    <path class="fil28" d="M2188.98 1950.12c-20.56,-1.45 -44.34,-20.05 -62.45,-45.9l0 -48.88 56.68 26.06 5.77 68.72z"/>
    <path class="fil26" d="M2183.21 1752.72c0,0 32.98,-14.65 43.98,51.3 10.99,65.99 2.63,127.63 -29.96,132.52 -32.58,4.89 -77.57,-49.43 -93.45,-93.42 -15.88,-43.99 53.33,-97.37 79.42,-90.41z"/>
    <path class="fil26" d="M2461.28 2401.87c-1.6,0.86 -3.22,-1.12 -2.07,-2.51 9.03,-10.81 24.06,-30.9 11.54,-30.9 -12.64,0 -25.45,15.95 -40.05,21.43 -5.18,1.93 -271.37,10.79 -293.62,-34.53 -7.75,-15.79 -30.69,-69.32 -41.53,-125.3 -49.92,1.49 -76.5,7.66 -120.42,31.47 16.16,83.56 39.51,154.77 70.29,185.55 38.65,38.62 261.92,9.18 314.57,1.61 7.75,-1.1 15.53,-1.8 23.37,-2.09 22.92,-0.83 70.91,-2.57 81.04,-2.57 13.41,0 45.14,-68 45.14,-68l-48.26 25.85z"/>
    <path class="fil28" d="M2095.55 2230.05c-49.92,1.49 -76.5,7.66 -120.42,31.47 1.46,7.6 2.99,15.03 4.57,22.37 29.52,0 89.65,-13.29 122.73,-24.07 -2.57,-9.69 -4.93,-19.7 -6.88,-29.78z"/>
    <path class="fil18" d="M1993.67 2016.15c0,0 -37.74,-4.7 -37.74,136.5 0,42.22 4.09,81.54 10.96,117.1 22.85,1.98 112.8,3.92 144.01,-35.05 0,0 -51.87,-234.02 -117.23,-218.54z"/>
    <path class="fil1" d="M2151.08 1710.47c5.57,2.13 11.35,3.69 17.25,4.61 12.68,2.03 33.86,9.5 46.76,36.24 19.35,40.09 -124.51,172.52 -88.55,220.01 35.94,47.52 -4.44,107.25 -57.19,140.53 -52.76,33.28 17.97,23.49 -45.88,55.07 -63.86,31.56 -144.85,-85.64 -95.61,-171.13 49.22,-85.51 92.8,-249.95 153.34,-274.9 39.95,-16.46 60.51,-14.02 69.89,-10.42z"/>
    <path class="fil17" d="M2565.23 2186.12c0,0 -28.64,12.84 -28.64,24.95 0,12.08 31.66,-5.82 25.88,0 -5.82,5.79 -29.73,12.93 -27.21,21.34 4.75,15.92 29.21,-8.04 34.94,-2.35 5.69,5.72 -19.82,11.5 -19.82,18.34 0,6.86 21.09,1.4 28.18,0 7.09,-1.37 -4.58,-50.19 -13.32,-62.27z"/>
   </g>
   <path class="fil1" d="M8095.85 1919.06c0,432.6 -350.7,783.3 -783.3,783.3 -432.6,0 -783.3,-350.7 -783.3,-783.3 0,-432.6 350.7,-783.3 783.3,-783.3 432.6,0 783.3,350.7 783.3,783.3z"/>
   <path class="fil1" d="M10148.64 1850.71c0,294.68 -238.87,533.55 -533.55,533.55 -294.67,0 -533.54,-238.87 -533.54,-533.55 0,-294.68 238.87,-533.54 533.54,-533.54 294.68,0 533.55,238.86 533.55,533.54z"/>
   <path class="fil2" d="M11601.88 3819.34l-1695.19 0c0,-936.22 758.96,-1695.19 1695.19,-1695.19l0 1695.19z"/>
   <path class="fil1" d="M8584.59 638.59c0,145.48 -117.94,263.42 -263.42,263.42 -145.48,0 -263.42,-117.94 -263.42,-263.42 0,-145.48 117.94,-263.42 263.42,-263.42 145.48,0 263.42,117.94 263.42,263.42z"/>
  </g>
 </g>
</svg>
