<?xml version="1.0" encoding="UTF-8"?>
<!DOCTYPE svg PUBLIC "-//W3C//DTD SVG 1.1//EN" "http://www.w3.org/Graphics/SVG/1.1/DTD/svg11.dtd">
<!-- Creator: CorelDRAW 2019 (64-Bit) -->
<svg xmlns="http://www.w3.org/2000/svg" xml:space="preserve" width="35.9833mm" height="65.0239mm" version="1.1" style="shape-rendering:geometricPrecision; text-rendering:geometricPrecision; image-rendering:optimizeQuality; fill-rule:evenodd; clip-rule:evenodd"
viewBox="0 0 1119.54 2023.07"
 xmlns:xlink="http://www.w3.org/1999/xlink">
 <defs>
  <style type="text/css">
   <![CDATA[
    .fil1 {fill:#FEFEFE}
    .fil2 {fill:#19ADE3}
    .fil3 {fill:#324049}
    .fil4 {fill:#747474}
    .fil0 {fill:#19ADE3;fill-rule:nonzero}
   ]]>
  </style>
 </defs>
 <g id="Слой_x0020_1">
  <metadata id="CorelCorpID_0Corel-Layer"/>
  <polygon class="fil0" points="1119.54,2023.07 1119.54,0 -0,0 -0,2023.07 "/>
  <polygon class="fil1" points="559.77,1940.44 131.9,1804.63 131.9,0 987.64,0 987.64,1812.34 "/>
  <path class="fil2" d="M634.41 1681.33l-17.41 -33.92c-43.99,10.7 -65.25,18.83 -112.16,2.03 -104.97,-37.61 -135.1,-175.99 -54.17,-254.23 78.67,-76.06 213.84,-51.13 252.45,60.63 15.76,45.62 6.44,71.9 -4.88,112.1 6.2,5.11 27.81,15.44 36.66,17.31 9.05,-41.85 29.01,-76.9 6.37,-141.99 -15.29,-43.92 -42.49,-76.01 -72.32,-96.78 -81.12,-56.49 -187.96,-38.16 -247.28,19.76 -57.38,56.03 -79.93,165.57 -24.41,247.3 35.8,52.7 98.18,88.05 168.28,85.27 20.01,-0.79 57.54,-6.26 68.88,-17.49z"/>
  <path class="fil3" d="M600.35 1616.41l-16.35 -34.11c-100.61,19.63 -135.78,-83.02 -82.19,-135.91 39.38,-38.87 109.77,-26.78 131.76,30.37 9.92,25.78 3.42,38.25 -0.97,61.27l32.16 15.02c15.61,-19.37 13.61,-60.71 5.62,-85.35 -32.25,-99.39 -169.68,-107.83 -216.27,-20.47 -34.97,65.58 -5.79,141.38 59.36,168.14 33.08,13.59 54.17,8.83 86.88,1.03z"/>
  <path class="fil4" d="M695.66 1721.99c10.33,-13.08 15.63,-44.28 26.82,-52.66 13.98,-10.47 41.18,-18.27 52.64,-29.14 -9.02,-9.68 -16.8,-15.67 -27.59,-27.46 -14.85,-16.23 -13.99,-15.61 -43.16,-14.87 -40.98,1.03 -27.04,7.41 -75.01,-38.23 -5.67,-5.39 -25.37,-22.58 -28.35,-27.3 -5.47,-8.67 9.31,-23.58 -1.56,-46.89 -13.09,-28.05 -50.87,-36.41 -74.32,-13.45 -24.29,23.79 -12.74,62.51 12.98,74.8 6.83,3.27 14.03,4.8 22.64,4.16 24.86,-1.87 6.98,-14.27 49.96,27.34 44.39,42.97 39.69,31.98 37.53,75.28 -1.51,30.2 1.97,25.16 17.89,40.54 9.8,9.47 19.52,19.77 29.53,27.88z"/>
  <polygon class="fil1" points="987.64,2023.07 131.9,2023.07 131.9,1881.64 558.51,2018.42 987.64,1886.37 "/>
 </g>
</svg>
